<svg width="343" height="117" viewBox="0 0 343 117" fill="none" xmlns="http://www.w3.org/2000/svg">
<rect x="0.5" y="39.5" width="94" height="74" rx="7.5" fill="url(#paint0_linear)"/>
<path d="M35.207 78H38.9219L45.9766 63.9375V61.0898H33.8828V63.9023H42.4844V63.9727L35.207 78ZM54.5547 78.375C58.4336 78.375 61.0938 75.9492 61.0938 72.375C61.0938 69.1523 58.7852 66.832 55.5625 66.832C53.8516 66.832 52.457 67.5234 51.7539 68.6602H51.6836L52.0938 63.9023H60.0742V61.0898H49.2812L48.5078 71.0156H51.5898C52.1641 69.9961 53.2188 69.3633 54.5781 69.3633C56.4297 69.3633 57.7188 70.6406 57.7188 72.457C57.7188 74.2969 56.4297 75.5742 54.5664 75.5742C52.9375 75.5742 51.6836 74.6133 51.4844 73.1484H48.2148C48.3086 76.2188 50.9336 78.375 54.5547 78.375Z" fill="white"/>
<path d="M36.3789 95V87.4941H39.0449V86.5449H32.6582V87.4941H35.3242V95H36.3789ZM40.9434 95.1055C42.625 95.1055 43.7617 93.8926 43.7617 91.9531C43.7617 90.0078 42.625 88.8008 40.9434 88.8008C39.2559 88.8008 38.1191 90.0078 38.1191 91.9531C38.1191 93.8926 39.2559 95.1055 40.9434 95.1055ZM40.9434 94.209C39.8652 94.209 39.1562 93.3887 39.1562 91.9531C39.1562 90.5176 39.8652 89.6973 40.9434 89.6973C42.0215 89.6973 42.7246 90.5176 42.7246 91.9531C42.7246 93.3887 42.0215 94.209 40.9434 94.209ZM47.1016 95.1055C47.9805 95.1055 48.6777 94.6719 49.0703 93.9688H49.0879V95H50.0605V86.5449H49.041V89.8965H49.0176C48.6543 89.2285 47.9512 88.8008 47.0781 88.8008C45.543 88.8008 44.4941 90.043 44.4941 91.9531C44.4941 93.8633 45.5488 95.1055 47.1016 95.1055ZM47.2949 89.6973C48.3438 89.6973 49.0469 90.5938 49.0469 91.9531C49.0469 93.3184 48.3438 94.209 47.2949 94.209C46.2168 94.209 45.5371 93.3359 45.5371 91.9531C45.5371 90.5762 46.2168 89.6973 47.2949 89.6973ZM53.2188 95.1055C54.0391 95.1055 54.8125 94.6484 55.1758 93.9512H55.1992V95H56.166V90.7871C56.166 89.5742 55.2637 88.8008 53.834 88.8008C52.3926 88.8008 51.4902 89.6094 51.4199 90.6641H52.4043C52.5332 90.0664 53.0254 89.6973 53.8105 89.6973C54.6543 89.6973 55.1465 90.1426 55.1465 90.8867V91.3965L53.4004 91.4961C51.9941 91.5781 51.1914 92.2344 51.1914 93.2773C51.1914 94.373 52.0059 95.1055 53.2188 95.1055ZM53.4473 94.2383C52.7148 94.2383 52.2285 93.8574 52.2285 93.2773C52.2285 92.7031 52.6973 92.3398 53.5176 92.2871L55.1465 92.1875V92.6855C55.1465 93.5645 54.4082 94.2383 53.4473 94.2383ZM57.9707 97.2793C59.0723 97.2793 59.5762 96.8516 60.0977 95.4277L62.4941 88.9062H61.4219L59.7344 93.9805H59.7168L58.0293 88.9062H56.9395L59.1895 95.0059L59.0488 95.4336C58.8145 96.1426 58.498 96.418 57.9297 96.418C57.8008 96.418 57.6426 96.4121 57.5312 96.3887V97.2441C57.6426 97.2676 57.8477 97.2793 57.9707 97.2793Z" fill="white"/>
<rect x="0.5" y="39.5" width="94" height="74" rx="7.5" stroke="#393939"/>
<rect x="111.5" y="39.5" width="106" height="74" rx="7.5" fill="url(#paint1_linear)"/>
<path d="M148.516 78H152.02V61.0898H148.504L144.133 64.125V67.2656L148.445 64.3359H148.516V78ZM162.496 78.375C166.785 78.375 169.387 74.9648 169.387 69.5039C169.387 64.043 166.762 60.7031 162.496 60.7031C158.23 60.7031 155.594 64.0547 155.594 69.5156C155.594 74.9883 158.207 78.375 162.496 78.375ZM162.496 75.5391C160.41 75.5391 159.191 73.3945 159.191 69.5156C159.191 65.6719 160.434 63.5391 162.496 63.5391C164.57 63.5391 165.789 65.6602 165.789 69.5156C165.789 73.3945 164.582 75.5391 162.496 75.5391ZM179.629 78H182.992V74.8945H185.219V72.0703H182.992V61.0898H178C174.531 66.1875 172.691 69.1406 171.215 71.9414V74.8945H179.629V78ZM174.297 72.0703C175.645 69.5508 177.18 67.1484 179.629 63.6211H179.699V72.1641H174.297V72.0703Z" fill="white"/>
<path d="M149.697 95H150.805L147.688 86.5449H146.645L143.527 95H144.635L145.484 92.5801H148.848L149.697 95ZM147.148 87.8281H147.184L148.537 91.6836H145.795L147.148 87.8281ZM156.143 88.9062H155.082L153.395 93.916H153.371L151.689 88.9062H150.617L152.861 95H153.904L156.143 88.9062ZM160.812 93.2539C160.643 93.8281 160.074 94.2207 159.301 94.2207C158.205 94.2207 157.52 93.4531 157.52 92.2871V92.2285H161.891V91.8418C161.891 89.9961 160.877 88.8008 159.23 88.8008C157.549 88.8008 156.471 90.084 156.471 91.9766C156.471 93.8926 157.531 95.1055 159.277 95.1055C160.607 95.1055 161.639 94.3203 161.814 93.2539H160.812ZM159.213 89.6855C160.174 89.6855 160.812 90.4121 160.836 91.4316H157.525C157.59 90.418 158.258 89.6855 159.213 89.6855ZM162.922 95H163.941V91.2031C163.941 90.3418 164.457 89.7734 165.248 89.7734C165.494 89.7734 165.711 89.8027 165.793 89.832V88.8418C165.711 88.8301 165.559 88.8008 165.383 88.8008C164.668 88.8008 164.105 89.2285 163.906 89.9023H163.883V88.9062H162.922V95ZM168.289 95.1055C169.109 95.1055 169.883 94.6484 170.246 93.9512H170.27V95H171.236V90.7871C171.236 89.5742 170.334 88.8008 168.904 88.8008C167.463 88.8008 166.561 89.6094 166.49 90.6641H167.475C167.604 90.0664 168.096 89.6973 168.881 89.6973C169.725 89.6973 170.217 90.1426 170.217 90.8867V91.3965L168.471 91.4961C167.064 91.5781 166.262 92.2344 166.262 93.2773C166.262 94.373 167.076 95.1055 168.289 95.1055ZM168.518 94.2383C167.785 94.2383 167.299 93.8574 167.299 93.2773C167.299 92.7031 167.768 92.3398 168.588 92.2871L170.217 92.1875V92.6855C170.217 93.5645 169.479 94.2383 168.518 94.2383ZM175.045 97.2969C176.727 97.2969 177.799 96.3301 177.799 94.877V88.9062H176.826V89.9316H176.809C176.404 89.2227 175.689 88.8008 174.828 88.8008C173.252 88.8008 172.232 90.0195 172.232 91.9297C172.232 93.8223 173.252 95.0469 174.805 95.0469C175.66 95.0469 176.381 94.6133 176.756 93.9512H176.779V94.9121C176.779 95.8203 176.141 96.4297 175.086 96.4297C174.324 96.4297 173.721 96.0605 173.521 95.5039H172.473C172.643 96.541 173.703 97.2969 175.045 97.2969ZM175.01 94.1504C173.961 94.1504 173.275 93.2949 173.275 91.9297C173.275 90.5645 173.961 89.6973 175.01 89.6973C176.07 89.6973 176.779 90.5879 176.779 91.9297C176.779 93.2715 176.07 94.1504 175.01 94.1504ZM183.172 93.2539C183.002 93.8281 182.434 94.2207 181.66 94.2207C180.564 94.2207 179.879 93.4531 179.879 92.2871V92.2285H184.25V91.8418C184.25 89.9961 183.236 88.8008 181.59 88.8008C179.908 88.8008 178.83 90.084 178.83 91.9766C178.83 93.8926 179.891 95.1055 181.637 95.1055C182.967 95.1055 183.998 94.3203 184.174 93.2539H183.172ZM181.572 89.6855C182.533 89.6855 183.172 90.4121 183.195 91.4316H179.885C179.949 90.418 180.617 89.6855 181.572 89.6855Z" fill="white"/>
<rect x="111.5" y="39.5" width="106" height="74" rx="7.5" stroke="#393939"/>
<rect x="234.487" y="64" width="8.43544" height="36" fill="#F2C94C"/>
<path d="M242.217 115V107.954H241.196L238.764 113.882H238.725L236.294 107.954H235.273V115H236.094V109.57H236.128L238.374 115H239.116L241.362 109.57H241.396V115H242.217Z" fill="white"/>
<rect x="251.288" y="39" width="8.43544" height="61" fill="#F2C94C"/>
<path d="M255.866 115V108.745H258.087V107.954H252.765V108.745H254.987V115H255.866Z" fill="white"/>
<rect x="268" y="78" width="9" height="22" fill="#FF9900"/>
<path d="M272.769 109.409H272.818L274.444 115H275.274L277.193 107.954H276.275L274.864 113.706H274.825L273.238 107.954H272.349L270.762 113.706H270.723L269.312 107.954H268.394L270.313 115H271.143L272.769 109.409Z" fill="white"/>
<rect x="285.864" y="64" width="8.43544" height="36" fill="#F2C94C"/>
<path d="M290.441 115V108.745H292.663V107.954H287.341V108.745H289.562V115H290.441Z" fill="white"/>
<rect x="302.098" y="64" width="8.43544" height="36" fill="#F2C94C"/>
<path d="M305.644 115V111.948H308.764V111.167H305.644V108.745H309.042V107.954H304.765V115H305.644Z" fill="white"/>
<rect x="318.331" y="82" width="8.43544" height="18" fill="#F2C94C"/>
<path d="M319.842 113.11C319.925 114.326 320.95 115.117 322.489 115.117C324.066 115.117 325.091 114.302 325.091 112.998C325.091 112.002 324.51 111.416 323.04 111.094L322.259 110.923C321.297 110.713 320.921 110.332 320.921 109.775C320.921 109.058 321.6 108.628 322.479 108.628C323.397 108.628 324.007 109.102 324.085 109.873H324.964C324.925 108.677 323.909 107.837 322.503 107.837C321.043 107.837 320.018 108.652 320.018 109.814C320.018 110.815 320.628 111.455 322.039 111.763L322.821 111.934C323.797 112.148 324.188 112.539 324.188 113.13C324.188 113.823 323.494 114.326 322.537 114.326C321.527 114.326 320.824 113.867 320.721 113.11H319.842Z" fill="white"/>
<rect x="334.565" y="51" width="8.43544" height="49" fill="#F2C94C"/>
<path d="M336.076 113.11C336.159 114.326 337.184 115.117 338.722 115.117C340.299 115.117 341.325 114.302 341.325 112.998C341.325 112.002 340.744 111.416 339.274 111.094L338.493 110.923C337.531 110.713 337.155 110.332 337.155 109.775C337.155 109.058 337.834 108.628 338.712 108.628C339.63 108.628 340.241 109.102 340.319 109.873H341.198C341.159 108.677 340.143 107.837 338.737 107.837C337.277 107.837 336.252 108.652 336.252 109.814C336.252 110.815 336.862 111.455 338.273 111.763L339.054 111.934C340.031 112.148 340.421 112.539 340.421 113.13C340.421 113.823 339.728 114.326 338.771 114.326C337.76 114.326 337.057 113.867 336.955 113.11H336.076Z" fill="white"/>
<path d="M1.5 6.08984V23H2.42578V16.1797H6.89062C10.1836 16.1797 12.3281 14.1992 12.3281 11.1406C12.3281 8.08203 10.1836 6.08984 6.90234 6.08984H1.5ZM2.42578 6.93359H6.75C9.60938 6.93359 11.3906 8.52734 11.3906 11.1406C11.3906 13.7422 9.59766 15.3359 6.75 15.3359H2.42578V6.93359ZM18.9844 23.1875C22.2188 23.1875 24.4219 20.7734 24.4219 16.9062C24.4219 13.0391 22.2188 10.625 18.9844 10.625C15.75 10.625 13.5586 13.0391 13.5586 16.9062C13.5586 20.7734 15.75 23.1875 18.9844 23.1875ZM18.9844 22.3672C16.2773 22.3672 14.4727 20.293 14.4727 16.9062C14.4727 13.5195 16.2773 11.4453 18.9844 11.4453C21.6914 11.4453 23.5078 13.5195 23.5078 16.9062C23.5078 20.2812 21.6914 22.3672 18.9844 22.3672ZM27.082 7.8125C27.4805 7.8125 27.7969 7.49609 27.7969 7.09766C27.7969 6.69922 27.4805 6.38281 27.082 6.38281C26.6953 6.38281 26.3555 6.69922 26.3555 7.09766C26.3555 7.49609 26.6953 7.8125 27.082 7.8125ZM26.625 23H27.5391V10.8125H26.625V23ZM30.3398 23H31.2539V15.7227C31.2539 13.1914 32.8711 11.4453 35.2266 11.4453C37.4883 11.4453 38.9766 12.8633 38.9766 15.2188V23H39.8906V15.1016C39.8906 12.3594 38.1211 10.625 35.4375 10.625C33.3633 10.625 31.7695 11.7852 31.2188 13.4609H31.1953V10.8125H30.3398V23ZM43.207 7.61328V10.8125H41.3906V11.5977H43.207V20.2227C43.207 22.2383 43.9688 23.0234 45.75 23.0234C45.8906 23.0234 46.6406 23.0117 46.7227 23V22.2031C46.6758 22.2031 45.9375 22.2148 45.8789 22.2148C44.6484 22.2148 44.1094 21.6406 44.1094 20.1992V11.5977H46.5586V10.8125H44.1094V7.61328H43.207ZM48.5273 13.9297C48.5273 15.5234 49.582 16.4727 51.9141 17.0117L53.6133 17.3984C55.582 17.8672 56.3438 18.5469 56.3438 19.8477C56.3438 21.3477 54.8906 22.4023 52.8047 22.4023C50.7656 22.4023 49.2539 21.2539 49.0312 19.5312H48.1289C48.3164 21.6992 50.2148 23.1875 52.8164 23.1875C55.4062 23.1875 57.2578 21.7812 57.2578 19.7891C57.2578 18.1016 56.3086 17.1875 53.8828 16.6133L52.1836 16.2148C50.2266 15.7578 49.418 15.0781 49.418 13.8945C49.418 12.4531 50.7891 11.4102 52.6758 11.4102C54.6211 11.4102 55.9336 12.5234 56.1797 14.3398H57.0586C56.8359 12.0664 55.1719 10.625 52.6758 10.625C50.25 10.625 48.5273 12.0078 48.5273 13.9297ZM70.0898 23C73.6406 23 75.7969 21.2539 75.7969 18.4883C75.7969 16.0391 73.9688 14.4922 71.5781 14.2344V14.1641C73.5938 13.7773 74.9062 12.2188 74.9062 10.2031C74.9062 7.75391 72.9141 6.08984 69.9727 6.08984H64.3359V23H70.0898ZM65.2617 6.93359H69.832C72.3516 6.93359 73.9688 8.23438 73.9688 10.2734C73.9688 12.5 72.2578 13.8828 69.6094 13.8828H65.2617V6.93359ZM65.2617 22.1562V14.7148H69.7617C72.9727 14.7148 74.8594 16.1328 74.8594 18.4648C74.8594 20.7383 73.0547 22.1562 70.0078 22.1562H65.2617ZM87.2578 10.8125H86.3438V18.125C86.3438 20.7031 84.5977 22.3672 82.2891 22.3672C80.0742 22.3672 78.6094 20.9844 78.6094 18.6055V10.8125H77.707V18.7461C77.707 21.4766 79.4766 23.1875 82.1016 23.1875C84.1172 23.1875 85.8281 21.9922 86.3672 20.3516H86.4023V23H87.2578V10.8125ZM89.9648 23H90.8789V15.4062C90.8789 13.1211 92.0625 11.4922 93.9844 11.4922C94.5586 11.4922 94.9922 11.6094 95.25 11.7383V10.8242C95.0273 10.7305 94.5938 10.625 94.1133 10.625C92.4961 10.625 91.3477 11.5391 90.8438 13.2148H90.8203V10.8125H89.9648V23ZM96.9258 23H97.8398V15.7227C97.8398 13.1914 99.457 11.4453 101.812 11.4453C104.074 11.4453 105.562 12.8633 105.562 15.2188V23H106.477V15.1016C106.477 12.3594 104.707 10.625 102.023 10.625C99.9492 10.625 98.3555 11.7852 97.8047 13.4609H97.7812V10.8125H96.9258V23ZM113.695 23.1875C115.957 23.1875 117.727 21.6992 118.289 19.7305H118.324V23H119.18V6.08984H118.266V14.0117H118.242C117.703 12.1133 115.945 10.625 113.684 10.625C110.637 10.625 108.504 13.1562 108.504 16.9062C108.504 20.6562 110.648 23.1875 113.695 23.1875ZM113.812 11.4453C116.426 11.4453 118.277 13.6719 118.277 16.9062C118.277 20.1406 116.426 22.3672 113.812 22.3672C111.223 22.3672 109.418 20.1641 109.418 16.8945C109.418 13.6367 111.223 11.4453 113.812 11.4453ZM126.82 23.1875C130.055 23.1875 132.258 20.7734 132.258 16.9062C132.258 13.0391 130.055 10.625 126.82 10.625C123.586 10.625 121.395 13.0391 121.395 16.9062C121.395 20.7734 123.586 23.1875 126.82 23.1875ZM126.82 22.3672C124.113 22.3672 122.309 20.293 122.309 16.9062C122.309 13.5195 124.113 11.4453 126.82 11.4453C129.527 11.4453 131.344 13.5195 131.344 16.9062C131.344 20.2812 129.527 22.3672 126.82 22.3672ZM149.133 10.8125H148.172L145.055 21.9922H145.02L141.633 10.8125H140.602L137.203 21.9922H137.18L134.051 10.8125H133.102L136.641 23H137.719L141.094 11.9844H141.129L144.527 23H145.582L149.133 10.8125ZM150.574 23H151.488V15.7227C151.488 13.1914 153.105 11.4453 155.461 11.4453C157.723 11.4453 159.211 12.8633 159.211 15.2188V23H160.125V15.1016C160.125 12.3594 158.355 10.625 155.672 10.625C153.598 10.625 152.004 11.7852 151.453 13.4609H151.43V10.8125H150.574V23Z" fill="#BDBDBD"/>
<defs>
<linearGradient id="paint0_linear" x1="95" y1="39" x2="-4.17836" y2="45.0064" gradientUnits="userSpaceOnUse">
<stop stop-color="#323131"/>
<stop offset="1" stop-color="#2C2C2C"/>
</linearGradient>
<linearGradient id="paint1_linear" x1="218" y1="39" x2="106.403" y2="46.6121" gradientUnits="userSpaceOnUse">
<stop stop-color="#323131"/>
<stop offset="1" stop-color="#2C2C2C"/>
</linearGradient>
</defs>
</svg>
