<svg width="480" height="258" viewBox="0 0 480 258" fill="none" xmlns="http://www.w3.org/2000/svg">
<g filter="url(#filter0_i)">
<rect x="66" y="1" width="157" height="75" rx="8" fill="url(#paint0_linear)"/>
</g>
<rect x="66.5" y="1.5" width="156" height="74" rx="7.5" stroke="url(#paint1_linear)"/>
<path d="M90 39.4286L97.2857 46.7143L114 30" stroke="white" stroke-width="2" stroke-linecap="round" stroke-linejoin="round"/>
<g filter="url(#filter1_i)">
<rect x="252" y="92" width="157" height="75" rx="8" fill="url(#paint2_linear)"/>
</g>
<rect x="252.5" y="92.5" width="156" height="74" rx="7.5" stroke="url(#paint3_linear)"/>
<path d="M372.944 119.593C372.817 119.607 372.7 119.668 372.616 119.764C372.532 119.86 372.487 119.984 372.489 120.111V122.76H365.692C365.673 122.759 365.654 122.759 365.636 122.76C365.555 122.769 365.477 122.796 365.409 122.841C365.341 122.885 365.285 122.945 365.245 123.016L361.064 130.324C361.021 130.402 360.999 130.49 361 130.579V136.962C361 137.098 361.054 137.228 361.15 137.323C361.245 137.419 361.375 137.473 361.511 137.473H384.489C384.625 137.473 384.755 137.419 384.85 137.323C384.946 137.228 385 137.098 385 136.962V130.579C385.001 130.49 384.979 130.402 384.936 130.324L380.755 123.016C380.71 122.937 380.645 122.872 380.566 122.827C380.488 122.783 380.399 122.759 380.308 122.76H373.511V120.111C373.512 120.039 373.498 119.966 373.47 119.9C373.441 119.833 373.399 119.773 373.345 119.724C373.291 119.675 373.228 119.637 373.159 119.615C373.09 119.592 373.016 119.585 372.944 119.593V119.593ZM365.979 123.781H372.489V128.401L370.535 126.622C370.484 126.575 370.425 126.539 370.361 126.516C370.296 126.493 370.228 126.483 370.16 126.486C370.058 126.491 369.961 126.527 369.879 126.588C369.798 126.649 369.737 126.732 369.703 126.828C369.67 126.924 369.666 127.028 369.692 127.126C369.718 127.225 369.772 127.313 369.848 127.38L372.657 129.933C372.751 130.018 372.873 130.065 373 130.065C373.127 130.065 373.249 130.018 373.343 129.933L376.152 127.38C376.252 127.289 376.312 127.162 376.319 127.026C376.326 126.891 376.278 126.758 376.187 126.658C376.096 126.557 375.969 126.497 375.834 126.49C375.698 126.484 375.566 126.531 375.465 126.622L373.511 128.401V123.781H380.021L383.612 130.069H377.085C376.95 130.069 376.82 130.123 376.724 130.218C376.628 130.314 376.574 130.444 376.574 130.579V132.111H369.426V130.579C369.426 130.444 369.372 130.314 369.276 130.218C369.18 130.123 369.05 130.069 368.915 130.069H362.388L365.979 123.781ZM362.021 131.09H368.404V132.622C368.404 132.757 368.458 132.887 368.554 132.983C368.65 133.079 368.779 133.132 368.915 133.133H377.085C377.221 133.132 377.35 133.079 377.446 132.983C377.542 132.887 377.596 132.757 377.596 132.622V131.09H383.979V136.452H362.021V131.09Z" fill="white"/>
<rect x="136" y="1" width="343" height="75" rx="8" fill="url(#paint4_linear)"/>
<path d="M155.297 27.875H157.188L159.289 32H161.961L159.586 27.5234C160.883 27.0156 161.633 25.7656 161.633 24.3203C161.633 22.0938 160.148 20.7266 157.555 20.7266H152.938V32H155.297V27.875ZM155.297 22.5703H157.305C158.477 22.5703 159.211 23.2734 159.211 24.3672C159.211 25.4844 158.516 26.1641 157.328 26.1641H155.297V22.5703ZM168.461 29.4375C168.25 30.0781 167.609 30.4922 166.773 30.4922C165.609 30.4922 164.852 29.6719 164.852 28.4766V28.3359H170.625V27.6406C170.625 25.0938 169.086 23.4453 166.648 23.4453C164.172 23.4453 162.609 25.1797 162.609 27.8516C162.609 30.5312 164.156 32.1797 166.734 32.1797C168.805 32.1797 170.305 31.0781 170.555 29.4375H168.461ZM166.672 25.1328C167.688 25.1328 168.383 25.8672 168.43 26.9375H164.875C164.953 25.8906 165.672 25.1328 166.672 25.1328ZM172.414 21.6953V23.625H171.234V25.3438H172.414V29.7422C172.414 31.375 173.18 32.0312 175.148 32.0312C175.609 32.0312 176 31.9922 176.234 31.9375V30.2578C176.094 30.2812 175.883 30.2969 175.68 30.2969C175.008 30.2969 174.695 29.9922 174.695 29.3516V25.3438H176.242V23.625H174.695V21.6953H172.414ZM185.227 23.625H182.945V28.4219C182.945 29.5312 182.312 30.2578 181.297 30.2578C180.289 30.2578 179.734 29.6641 179.734 28.5469V23.625H177.453V29.0234C177.453 30.9766 178.656 32.1562 180.469 32.1562C181.734 32.1562 182.562 31.5469 182.977 30.4922H183.023V32H185.227V23.625ZM186.711 32H188.992V27.3203C188.992 26.1406 189.648 25.4531 190.773 25.4531C191.102 25.4531 191.414 25.5078 191.602 25.5859V23.5781C191.445 23.5312 191.219 23.4922 190.953 23.4922C189.969 23.4922 189.258 24.0703 188.961 25.1328H188.914V23.625H186.711V32ZM192.539 32H194.82V27.1953C194.82 26.1094 195.469 25.3594 196.492 25.3594C197.516 25.3594 198.031 25.9844 198.031 27.0781V32H200.312V26.6016C200.312 24.6406 199.266 23.4688 197.406 23.4688C196.117 23.4688 195.234 24.0781 194.789 25.1172H194.742V23.625H192.539V32ZM210.477 29.4375C210.266 30.0781 209.625 30.4922 208.789 30.4922C207.625 30.4922 206.867 29.6719 206.867 28.4766V28.3359H212.641V27.6406C212.641 25.0938 211.102 23.4453 208.664 23.4453C206.188 23.4453 204.625 25.1797 204.625 27.8516C204.625 30.5312 206.172 32.1797 208.75 32.1797C210.82 32.1797 212.32 31.0781 212.57 29.4375H210.477ZM208.688 25.1328C209.703 25.1328 210.398 25.8672 210.445 26.9375H206.891C206.969 25.8906 207.688 25.1328 208.688 25.1328ZM213.82 32H216.102V26.9453C216.102 26.0078 216.688 25.3516 217.555 25.3516C218.398 25.3516 218.906 25.8828 218.906 26.7812V32H221.102V26.9141C221.102 25.9844 221.672 25.3516 222.539 25.3516C223.422 25.3516 223.906 25.8828 223.906 26.8516V32H226.188V26.2812C226.188 24.5938 225.086 23.4688 223.445 23.4688C222.219 23.4688 221.219 24.1328 220.844 25.1875H220.797C220.516 24.0938 219.672 23.4688 218.461 23.4688C217.32 23.4688 216.422 24.1328 216.07 25.1406H216.023V23.625H213.82V32ZM230.117 32.1328C231.164 32.1328 232.203 31.6094 232.672 30.7188H232.719V32H234.922V26.2422C234.922 24.5547 233.523 23.4453 231.375 23.4453C229.156 23.4453 227.773 24.5625 227.688 26.1875H229.773C229.883 25.5703 230.422 25.1484 231.273 25.1484C232.133 25.1484 232.68 25.6016 232.68 26.3828V26.9375L230.57 27.0625C228.484 27.1875 227.312 28.0703 227.312 29.5938C227.312 31.1016 228.523 32.1328 230.117 32.1328ZM230.867 30.4844C230.094 30.4844 229.578 30.0938 229.578 29.4688C229.578 28.875 230.062 28.4922 230.914 28.4297L232.68 28.3203V28.9297C232.68 29.8359 231.859 30.4844 230.867 30.4844ZM237.57 22.4922C238.234 22.4922 238.758 21.9609 238.758 21.3203C238.758 20.6719 238.234 20.1484 237.57 20.1484C236.906 20.1484 236.383 20.6719 236.383 21.3203C236.383 21.9609 236.906 22.4922 237.57 22.4922ZM236.438 32H238.719V23.625H236.438V32ZM240.297 32H242.578V20.7266H240.297V32ZM247.898 21.6953V23.625H246.719V25.3438H247.898V29.7422C247.898 31.375 248.664 32.0312 250.633 32.0312C251.094 32.0312 251.484 31.9922 251.719 31.9375V30.2578C251.578 30.2812 251.367 30.2969 251.164 30.2969C250.492 30.2969 250.18 29.9922 250.18 29.3516V25.3438H251.727V23.625H250.18V21.6953H247.898ZM256.695 32.1797C259.227 32.1797 260.844 30.5625 260.844 27.8047C260.844 25.0859 259.203 23.4453 256.695 23.4453C254.188 23.4453 252.547 25.0938 252.547 27.8047C252.547 30.5547 254.164 32.1797 256.695 32.1797ZM256.695 30.4375C255.57 30.4375 254.859 29.4922 254.859 27.8125C254.859 26.1484 255.586 25.1875 256.695 25.1875C257.805 25.1875 258.523 26.1484 258.523 27.8125C258.523 29.4922 257.812 30.4375 256.695 30.4375ZM265.391 20.7266V32H269.695C273.078 32 275.07 29.8984 275.07 26.3203C275.07 22.7422 273.078 20.7266 269.695 20.7266H265.391ZM267.75 22.6719H269.414C271.492 22.6719 272.664 23.9688 272.664 26.3281C272.664 28.7656 271.523 30.0469 269.414 30.0469H267.75V22.6719ZM280.242 32.1797C282.773 32.1797 284.391 30.5625 284.391 27.8047C284.391 25.0859 282.75 23.4453 280.242 23.4453C277.734 23.4453 276.094 25.0938 276.094 27.8047C276.094 30.5547 277.711 32.1797 280.242 32.1797ZM280.242 30.4375C279.117 30.4375 278.406 29.4922 278.406 27.8125C278.406 26.1484 279.133 25.1875 280.242 25.1875C281.352 25.1875 282.07 26.1484 282.07 27.8125C282.07 29.4922 281.359 30.4375 280.242 30.4375ZM285.57 32H287.852V27.3203C287.852 26.1406 288.508 25.4531 289.633 25.4531C289.961 25.4531 290.273 25.5078 290.461 25.5859V23.5781C290.305 23.5312 290.078 23.4922 289.812 23.4922C288.828 23.4922 288.117 24.0703 287.82 25.1328H287.773V23.625H285.57V32Z" fill="#F0F0F0"/>
<circle cx="156" cy="53" r="4" fill="#EB5757"/>
<path d="M172.014 57V49.4941H174.68V48.5449H168.293V49.4941H170.959V57H172.014ZM176.578 57.1055C178.26 57.1055 179.396 55.8926 179.396 53.9531C179.396 52.0078 178.26 50.8008 176.578 50.8008C174.891 50.8008 173.754 52.0078 173.754 53.9531C173.754 55.8926 174.891 57.1055 176.578 57.1055ZM176.578 56.209C175.5 56.209 174.791 55.3887 174.791 53.9531C174.791 52.5176 175.5 51.6973 176.578 51.6973C177.656 51.6973 178.359 52.5176 178.359 53.9531C178.359 55.3887 177.656 56.209 176.578 56.209ZM182.736 57.1055C183.615 57.1055 184.312 56.6719 184.705 55.9688H184.723V57H185.695V48.5449H184.676V51.8965H184.652C184.289 51.2285 183.586 50.8008 182.713 50.8008C181.178 50.8008 180.129 52.043 180.129 53.9531C180.129 55.8633 181.184 57.1055 182.736 57.1055ZM182.93 51.6973C183.979 51.6973 184.682 52.5938 184.682 53.9531C184.682 55.3184 183.979 56.209 182.93 56.209C181.852 56.209 181.172 55.3359 181.172 53.9531C181.172 52.5762 181.852 51.6973 182.93 51.6973ZM188.854 57.1055C189.674 57.1055 190.447 56.6484 190.811 55.9512H190.834V57H191.801V52.7871C191.801 51.5742 190.898 50.8008 189.469 50.8008C188.027 50.8008 187.125 51.6094 187.055 52.6641H188.039C188.168 52.0664 188.66 51.6973 189.445 51.6973C190.289 51.6973 190.781 52.1426 190.781 52.8867V53.3965L189.035 53.4961C187.629 53.5781 186.826 54.2344 186.826 55.2773C186.826 56.373 187.641 57.1055 188.854 57.1055ZM189.082 56.2383C188.35 56.2383 187.863 55.8574 187.863 55.2773C187.863 54.7031 188.332 54.3398 189.152 54.2871L190.781 54.1875V54.6855C190.781 55.5645 190.043 56.2383 189.082 56.2383ZM193.605 59.2793C194.707 59.2793 195.211 58.8516 195.732 57.4277L198.129 50.9062H197.057L195.369 55.9805H195.352L193.664 50.9062H192.574L194.824 57.0059L194.684 57.4336C194.449 58.1426 194.133 58.418 193.564 58.418C193.436 58.418 193.277 58.4121 193.166 58.3887V59.2441C193.277 59.2676 193.482 59.2793 193.605 59.2793Z" fill="white" fill-opacity="0.7"/>
<circle cx="219" cy="53" r="4" fill="#EB5757"/>
<path d="M232.875 48.5449H231.82V54.0352C231.82 55.8398 233.08 57.1406 235.178 57.1406C237.275 57.1406 238.535 55.8398 238.535 54.0352V48.5449H237.48V53.9648C237.48 55.2422 236.643 56.168 235.178 56.168C233.713 56.168 232.875 55.2422 232.875 53.9648V48.5449ZM240.018 57H241.037V53.2031C241.037 52.3418 241.553 51.7734 242.344 51.7734C242.59 51.7734 242.807 51.8027 242.889 51.832V50.8418C242.807 50.8301 242.654 50.8008 242.479 50.8008C241.764 50.8008 241.201 51.2285 241.002 51.9023H240.979V50.9062H240.018V57ZM245.941 59.2969C247.623 59.2969 248.695 58.3301 248.695 56.877V50.9062H247.723V51.9316H247.705C247.301 51.2227 246.586 50.8008 245.725 50.8008C244.148 50.8008 243.129 52.0195 243.129 53.9297C243.129 55.8223 244.148 57.0469 245.701 57.0469C246.557 57.0469 247.277 56.6133 247.652 55.9512H247.676V56.9121C247.676 57.8203 247.037 58.4297 245.982 58.4297C245.221 58.4297 244.617 58.0605 244.418 57.5039H243.369C243.539 58.541 244.6 59.2969 245.941 59.2969ZM245.906 56.1504C244.857 56.1504 244.172 55.2949 244.172 53.9297C244.172 52.5645 244.857 51.6973 245.906 51.6973C246.967 51.6973 247.676 52.5879 247.676 53.9297C247.676 55.2715 246.967 56.1504 245.906 56.1504ZM254.068 55.2539C253.898 55.8281 253.33 56.2207 252.557 56.2207C251.461 56.2207 250.775 55.4531 250.775 54.2871V54.2285H255.146V53.8418C255.146 51.9961 254.133 50.8008 252.486 50.8008C250.805 50.8008 249.727 52.084 249.727 53.9766C249.727 55.8926 250.787 57.1055 252.533 57.1055C253.863 57.1055 254.895 56.3203 255.07 55.2539H254.068ZM252.469 51.6855C253.43 51.6855 254.068 52.4121 254.092 53.4316H250.781C250.846 52.418 251.514 51.6855 252.469 51.6855ZM256.178 57H257.197V53.4141C257.197 52.3828 257.824 51.7031 258.785 51.7031C259.723 51.7031 260.186 52.2422 260.186 53.2266V57H261.205V53.0449C261.205 51.6621 260.432 50.8008 259.096 50.8008C258.152 50.8008 257.502 51.2227 257.162 51.8789H257.139V50.9062H256.178V57ZM262.834 49.4355V50.9062H261.926V51.7441H262.834V55.418C262.834 56.5898 263.268 57.0469 264.387 57.0469C264.627 57.0469 264.908 57.0293 265.031 57V56.1445C264.961 56.1562 264.727 56.1738 264.609 56.1738C264.088 56.1738 263.854 55.9219 263.854 55.3652V51.7441H265.037V50.9062H263.854V49.4355H262.834Z" fill="white" fill-opacity="0.7"/>
<path d="M441.273 44.1641C443.508 44.1641 445.148 42.5781 445.148 40.4062C445.148 38.2656 443.555 36.6719 441.43 36.6719C440.203 36.6719 439.07 37.2266 438.453 38.1406H438.438L438.977 33.2891H444.422V32.7266H438.445L437.789 38.9062H438.391C439.008 37.8359 440.102 37.2188 441.359 37.2188C443.164 37.2188 444.531 38.6016 444.531 40.4141C444.531 42.25 443.148 43.6094 441.281 43.6094C439.688 43.6094 438.383 42.6016 438.211 41.2422H437.594C437.766 42.9297 439.328 44.1641 441.273 44.1641ZM450.594 44.1641C452.773 44.1641 454.391 42.5234 454.391 40.3359C454.391 38.2266 452.781 36.625 450.648 36.625C448.938 36.625 447.5 37.7031 447.125 39.1797H447.094C447.031 35.375 448.359 33.1172 450.641 33.1172C452.102 33.1172 453.266 34.0156 453.516 35.3281H454.141C453.875 33.6719 452.469 32.5625 450.648 32.5625C448.086 32.5625 446.484 34.9062 446.484 38.6562C446.484 43.0859 448.828 44.1641 450.594 44.1641ZM450.586 43.6016C448.758 43.6016 447.344 42.125 447.344 40.2344C447.344 38.5703 448.82 37.1797 450.586 37.1797C452.391 37.1797 453.766 38.5547 453.766 40.3516C453.766 42.1875 452.383 43.6016 450.586 43.6016Z" fill="white"/>
<rect x="136" y="1" width="343" height="75" rx="8" stroke="#393939"/>
<rect x="1" y="92" width="343" height="75" rx="8" fill="url(#paint5_linear)"/>
<path d="M22.9297 123C25.3359 123 26.8281 121.758 26.8281 119.773C26.8281 118.281 25.7031 117.164 24.1719 117.047V116.984C25.3672 116.805 26.2891 115.773 26.2891 114.539C26.2891 112.812 24.9609 111.727 22.8438 111.727H17.9375V123H22.9297ZM20.2969 113.484H22.2344C23.3359 113.484 23.9688 114 23.9688 114.906C23.9688 115.859 23.25 116.414 21.9922 116.414H20.2969V113.484ZM20.2969 121.242V117.969H22.2734C23.6641 117.969 24.4219 118.531 24.4219 119.586C24.4219 120.664 23.6875 121.242 22.3281 121.242H20.2969ZM35.7109 114.625H33.4297V119.422C33.4297 120.531 32.7969 121.258 31.7812 121.258C30.7734 121.258 30.2188 120.664 30.2188 119.547V114.625H27.9375V120.023C27.9375 121.977 29.1406 123.156 30.9531 123.156C32.2188 123.156 33.0469 122.547 33.4609 121.492H33.5078V123H35.7109V114.625ZM38.2734 126.102C40.4062 126.102 41.4609 125.328 42.1719 123.18L45.0547 114.625H42.6484L40.875 121.172H40.8281L39.0469 114.625H36.5469L39.4609 123C39.4688 123.039 39.3828 123.367 39.3828 123.406C39.2266 124.07 38.8125 124.336 37.9844 124.336C37.8984 124.336 37.4844 124.328 37.4062 124.312V126.078C37.4844 126.094 38.1875 126.102 38.2734 126.102ZM49.0703 123H51.3516V118.195C51.3516 117.109 52 116.359 53.0234 116.359C54.0469 116.359 54.5625 116.984 54.5625 118.078V123H56.8438V117.602C56.8438 115.641 55.7969 114.469 53.9375 114.469C52.6484 114.469 51.7656 115.078 51.3203 116.117H51.2734V114.625H49.0703V123ZM63.8359 120.438C63.625 121.078 62.9844 121.492 62.1484 121.492C60.9844 121.492 60.2266 120.672 60.2266 119.477V119.336H66V118.641C66 116.094 64.4609 114.445 62.0234 114.445C59.5469 114.445 57.9844 116.18 57.9844 118.852C57.9844 121.531 59.5312 123.18 62.1094 123.18C64.1797 123.18 65.6797 122.078 65.9297 120.438H63.8359ZM62.0469 116.133C63.0625 116.133 63.7578 116.867 63.8047 117.938H60.25C60.3281 116.891 61.0469 116.133 62.0469 116.133ZM78.8828 114.625H76.6328L75.3594 120.836H75.3125L73.8203 114.625H71.6328L70.1484 120.836H70.1016L68.8359 114.625H66.5391L68.7656 123H71.1641L72.6719 117.078H72.7188L74.2344 123H76.6641L78.8828 114.625ZM83 123H85.2812V118.219C85.2812 117.117 85.9141 116.359 86.9922 116.359C88.0312 116.359 88.5625 117.016 88.5625 118.094V123H90.8438V117.609C90.8438 115.672 89.7812 114.469 87.9219 114.469C86.6484 114.469 85.7344 115.062 85.2891 116.117H85.2422V111.727H83V123ZM97.8516 120.438C97.6406 121.078 97 121.492 96.1641 121.492C95 121.492 94.2422 120.672 94.2422 119.477V119.336H100.016V118.641C100.016 116.094 98.4766 114.445 96.0391 114.445C93.5625 114.445 92 116.18 92 118.852C92 121.531 93.5469 123.18 96.125 123.18C98.1953 123.18 99.6953 122.078 99.9453 120.438H97.8516ZM96.0625 116.133C97.0781 116.133 97.7734 116.867 97.8203 117.938H94.2656C94.3438 116.891 95.0625 116.133 96.0625 116.133ZM103.68 123.133C104.727 123.133 105.766 122.609 106.234 121.719H106.281V123H108.484V117.242C108.484 115.555 107.086 114.445 104.938 114.445C102.719 114.445 101.336 115.562 101.25 117.188H103.336C103.445 116.57 103.984 116.148 104.836 116.148C105.695 116.148 106.242 116.602 106.242 117.383V117.938L104.133 118.062C102.047 118.188 100.875 119.07 100.875 120.594C100.875 122.102 102.086 123.133 103.68 123.133ZM104.43 121.484C103.656 121.484 103.141 121.094 103.141 120.469C103.141 119.875 103.625 119.492 104.477 119.43L106.242 119.32V119.93C106.242 120.836 105.422 121.484 104.43 121.484ZM113.07 123.133C114.305 123.133 115.273 122.484 115.68 121.562H115.719V123H117.969V111.727H115.688V116.062H115.641C115.234 115.133 114.297 114.492 113.086 114.492C110.984 114.492 109.656 116.141 109.656 118.797C109.656 121.477 110.977 123.133 113.07 123.133ZM113.844 116.32C114.977 116.32 115.703 117.289 115.703 118.812C115.703 120.344 114.977 121.297 113.844 121.297C112.695 121.297 111.992 120.352 111.992 118.812C111.992 117.281 112.695 116.32 113.844 116.32ZM119.352 117.086C119.352 118.344 120.172 119.156 121.789 119.5L123.219 119.797C124.039 119.984 124.328 120.234 124.328 120.68C124.328 121.227 123.797 121.578 122.938 121.578C122.031 121.578 121.508 121.188 121.367 120.453H119.141C119.289 122.102 120.625 123.18 122.938 123.18C125.094 123.18 126.602 122.094 126.602 120.445C126.602 119.219 125.883 118.531 124.133 118.164L122.703 117.859C121.859 117.68 121.547 117.391 121.547 116.961C121.547 116.406 122.07 116.047 122.859 116.047C123.703 116.047 124.211 116.508 124.281 117.188H126.383C126.336 115.547 125.008 114.445 122.859 114.445C120.727 114.445 119.352 115.492 119.352 117.086ZM133.273 120.438C133.062 121.078 132.422 121.492 131.586 121.492C130.422 121.492 129.664 120.672 129.664 119.477V119.336H135.438V118.641C135.438 116.094 133.898 114.445 131.461 114.445C128.984 114.445 127.422 116.18 127.422 118.852C127.422 121.531 128.969 123.18 131.547 123.18C133.617 123.18 135.117 122.078 135.367 120.438H133.273ZM131.484 116.133C132.5 116.133 133.195 116.867 133.242 117.938H129.688C129.766 116.891 130.484 116.133 131.484 116.133ZM137.227 112.695V114.625H136.047V116.344H137.227V120.742C137.227 122.375 137.992 123.031 139.961 123.031C140.422 123.031 140.812 122.992 141.047 122.938V121.258C140.906 121.281 140.695 121.297 140.492 121.297C139.82 121.297 139.508 120.992 139.508 120.352V116.344H141.055V114.625H139.508V112.695H137.227Z" fill="#F0F0F0"/>
<circle cx="21" cy="144" r="4" fill="#F2C94C"/>
<path d="M34.875 148V139.545H33.8203V148H34.875ZM36.3574 148H37.377V144.414C37.377 143.383 38.0039 142.703 38.9648 142.703C39.9023 142.703 40.3652 143.242 40.3652 144.227V148H41.3848V144.045C41.3848 142.662 40.6113 141.801 39.2754 141.801C38.332 141.801 37.6816 142.223 37.3418 142.879H37.3184V141.906H36.3574V148ZM46.9277 148.105C47.748 148.105 48.5215 147.648 48.8848 146.951H48.9082V148H49.875V143.787C49.875 142.574 48.9727 141.801 47.543 141.801C46.1016 141.801 45.1992 142.609 45.1289 143.664H46.1133C46.2422 143.066 46.7344 142.697 47.5195 142.697C48.3633 142.697 48.8555 143.143 48.8555 143.887V144.396L47.1094 144.496C45.7031 144.578 44.9004 145.234 44.9004 146.277C44.9004 147.373 45.7148 148.105 46.9277 148.105ZM47.1562 147.238C46.4238 147.238 45.9375 146.857 45.9375 146.277C45.9375 145.703 46.4062 145.34 47.2266 145.287L48.8555 145.188V145.686C48.8555 146.564 48.1172 147.238 47.1562 147.238ZM61.3828 141.906H60.375L59.1562 146.863H59.1328L57.75 141.906H56.7656L55.3887 146.863H55.3652L54.1465 141.906H53.1328L54.8379 148H55.875L57.2461 143.283H57.2695L58.6465 148H59.6836L61.3828 141.906ZM66.2637 146.254C66.0938 146.828 65.5254 147.221 64.752 147.221C63.6562 147.221 62.9707 146.453 62.9707 145.287V145.229H67.3418V144.842C67.3418 142.996 66.3281 141.801 64.6816 141.801C63 141.801 61.9219 143.084 61.9219 144.977C61.9219 146.893 62.9824 148.105 64.7285 148.105C66.0586 148.105 67.0898 147.32 67.2656 146.254H66.2637ZM64.6641 142.686C65.625 142.686 66.2637 143.412 66.2871 144.432H62.9766C63.041 143.418 63.709 142.686 64.6641 142.686ZM72.416 146.254C72.2461 146.828 71.6777 147.221 70.9043 147.221C69.8086 147.221 69.123 146.453 69.123 145.287V145.229H73.4941V144.842C73.4941 142.996 72.4805 141.801 70.834 141.801C69.1523 141.801 68.0742 143.084 68.0742 144.977C68.0742 146.893 69.1348 148.105 70.8809 148.105C72.2109 148.105 73.2422 147.32 73.418 146.254H72.416ZM70.8164 142.686C71.7773 142.686 72.416 143.412 72.4395 144.432H69.1289C69.1934 143.418 69.8613 142.686 70.8164 142.686ZM75.5977 145.703L76.166 145.164L78.4277 148H79.6113L76.8867 144.537L79.5293 141.906H78.293L75.5977 144.613V139.545H74.5781V148H75.5977V145.703Z" fill="white" fill-opacity="0.7"/>
<circle cx="100" cy="144" r="4" fill="#6FCF97"/>
<path d="M113.863 148V141.385H113.916L118.545 148H119.57V139.545H118.527V146.184H118.475L113.846 139.545H112.82V148H113.863ZM121.615 140.822C121.973 140.822 122.254 140.535 122.254 140.184C122.254 139.826 121.973 139.545 121.615 139.545C121.264 139.545 120.977 139.826 120.977 140.184C120.977 140.535 121.264 140.822 121.615 140.822ZM121.105 148H122.125V141.906H121.105V148ZM128.564 143.904C128.436 142.809 127.527 141.801 126.004 141.801C124.322 141.801 123.203 143.031 123.203 144.953C123.203 146.916 124.328 148.105 126.016 148.105C127.398 148.105 128.418 147.25 128.576 146.037H127.574C127.398 146.77 126.854 147.209 126.021 147.209C124.967 147.209 124.24 146.371 124.24 144.953C124.24 143.57 124.955 142.697 126.01 142.697C126.906 142.697 127.422 143.242 127.568 143.904H128.564ZM133.557 146.254C133.387 146.828 132.818 147.221 132.045 147.221C130.949 147.221 130.264 146.453 130.264 145.287V145.229H134.635V144.842C134.635 142.996 133.621 141.801 131.975 141.801C130.293 141.801 129.215 143.084 129.215 144.977C129.215 146.893 130.275 148.105 132.021 148.105C133.352 148.105 134.383 147.32 134.559 146.254H133.557ZM131.957 142.686C132.918 142.686 133.557 143.412 133.58 144.432H130.27C130.334 143.418 131.002 142.686 131.957 142.686ZM138.455 140.436V141.906H137.547V142.744H138.455V146.418C138.455 147.59 138.889 148.047 140.008 148.047C140.248 148.047 140.529 148.029 140.652 148V147.145C140.582 147.156 140.348 147.174 140.23 147.174C139.709 147.174 139.475 146.922 139.475 146.365V142.744H140.658V141.906H139.475V140.436H138.455ZM144.098 148.105C145.779 148.105 146.916 146.893 146.916 144.953C146.916 143.008 145.779 141.801 144.098 141.801C142.41 141.801 141.273 143.008 141.273 144.953C141.273 146.893 142.41 148.105 144.098 148.105ZM144.098 147.209C143.02 147.209 142.311 146.389 142.311 144.953C142.311 143.518 143.02 142.697 144.098 142.697C145.176 142.697 145.879 143.518 145.879 144.953C145.879 146.389 145.176 147.209 144.098 147.209ZM150.461 148H151.48V144.449C151.48 143.395 152.107 142.703 153.121 142.703C154.076 142.703 154.562 143.283 154.562 144.25V148H155.582V144.062C155.582 142.703 154.773 141.801 153.438 141.801C152.512 141.801 151.844 142.199 151.504 142.879H151.48V139.545H150.461V148ZM158.658 148.105C159.479 148.105 160.252 147.648 160.615 146.951H160.639V148H161.605V143.787C161.605 142.574 160.703 141.801 159.273 141.801C157.832 141.801 156.93 142.609 156.859 143.664H157.844C157.973 143.066 158.465 142.697 159.25 142.697C160.094 142.697 160.586 143.143 160.586 143.887V144.396L158.84 144.496C157.434 144.578 156.631 145.234 156.631 146.277C156.631 147.373 157.445 148.105 158.658 148.105ZM158.887 147.238C158.154 147.238 157.668 146.857 157.668 146.277C157.668 145.703 158.137 145.34 158.957 145.287L160.586 145.188V145.686C160.586 146.564 159.848 147.238 158.887 147.238ZM167.898 141.906H166.838L165.15 146.916H165.127L163.445 141.906H162.373L164.617 148H165.66L167.898 141.906ZM172.568 146.254C172.398 146.828 171.83 147.221 171.057 147.221C169.961 147.221 169.275 146.453 169.275 145.287V145.229H173.646V144.842C173.646 142.996 172.633 141.801 170.986 141.801C169.305 141.801 168.227 143.084 168.227 144.977C168.227 146.893 169.287 148.105 171.033 148.105C172.363 148.105 173.395 147.32 173.57 146.254H172.568ZM170.969 142.686C171.93 142.686 172.568 143.412 172.592 144.432H169.281C169.346 143.418 170.014 142.686 170.969 142.686Z" fill="white" fill-opacity="0.7"/>
<path d="M308.867 135H309.477V132.18H311.266V131.617H309.477V123.688L308.586 123.695C306.32 126.75 304.641 129.164 303.062 131.609V132.18H308.867V135ZM303.742 131.602C305.164 129.414 306.859 126.969 308.852 124.312H308.867V131.617H303.742V131.602ZM313.32 135H313.992L319.344 124.32V123.727H312.156V124.289H318.711V124.312L313.32 135Z" fill="white"/>
<rect x="1" y="92" width="343" height="75" rx="8" stroke="#393939"/>
<rect x="66.5" y="183.5" width="342" height="74" rx="7.5" fill="url(#paint6_linear)"/>
<path d="M82.5078 210.781C82.5781 212.906 84.3672 214.188 87.0547 214.188C89.875 214.188 91.6016 212.797 91.6016 210.594C91.6016 208.883 90.5625 207.922 88.1797 207.445L86.9844 207.203C85.6562 206.938 85.1094 206.508 85.1094 205.812C85.1094 204.984 85.8906 204.438 87.0547 204.438C88.2422 204.438 89.0781 205.016 89.1562 205.977H91.3828C91.3438 203.906 89.6875 202.531 87.0547 202.531C84.5469 202.531 82.75 203.898 82.75 205.961C82.75 207.641 83.8516 208.719 86.1016 209.164L87.2891 209.398C88.7031 209.688 89.2344 210.109 89.2344 210.852C89.2344 211.68 88.375 212.289 87.1172 212.289C85.8359 212.289 84.8828 211.727 84.7344 210.781H82.5078ZM100.461 208.742C100.359 206.844 98.9219 205.445 96.6562 205.445C94.1484 205.445 92.5469 207.117 92.5469 209.805C92.5469 212.539 94.1484 214.18 96.6719 214.18C98.875 214.18 100.352 212.906 100.469 210.93H98.3438C98.2031 211.844 97.6094 212.391 96.6953 212.391C95.5625 212.391 94.8594 211.453 94.8594 209.805C94.8594 208.188 95.5625 207.234 96.6875 207.234C97.625 207.234 98.2109 207.859 98.3438 208.742H100.461ZM101.625 214H103.906V209.219C103.906 208.117 104.539 207.359 105.617 207.359C106.656 207.359 107.188 208.016 107.188 209.094V214H109.469V208.609C109.469 206.672 108.406 205.469 106.547 205.469C105.273 205.469 104.359 206.062 103.914 207.117H103.867V202.727H101.625V214ZM116.477 211.438C116.266 212.078 115.625 212.492 114.789 212.492C113.625 212.492 112.867 211.672 112.867 210.477V210.336H118.641V209.641C118.641 207.094 117.102 205.445 114.664 205.445C112.188 205.445 110.625 207.18 110.625 209.852C110.625 212.531 112.172 214.18 114.75 214.18C116.82 214.18 118.32 213.078 118.57 211.438H116.477ZM114.688 207.133C115.703 207.133 116.398 207.867 116.445 208.938H112.891C112.969 207.891 113.688 207.133 114.688 207.133ZM122.93 214.133C124.164 214.133 125.133 213.484 125.539 212.562H125.578V214H127.828V202.727H125.547V207.062H125.5C125.094 206.133 124.156 205.492 122.945 205.492C120.844 205.492 119.516 207.141 119.516 209.797C119.516 212.477 120.836 214.133 122.93 214.133ZM123.703 207.32C124.836 207.32 125.562 208.289 125.562 209.812C125.562 211.344 124.836 212.297 123.703 212.297C122.555 212.297 121.852 211.352 121.852 209.812C121.852 208.281 122.555 207.32 123.703 207.32ZM137.086 205.625H134.805V210.422C134.805 211.531 134.172 212.258 133.156 212.258C132.148 212.258 131.594 211.664 131.594 210.547V205.625H129.312V211.023C129.312 212.977 130.516 214.156 132.328 214.156C133.594 214.156 134.422 213.547 134.836 212.492H134.883V214H137.086V205.625ZM138.625 214H140.906V202.727H138.625V214ZM147.992 211.438C147.781 212.078 147.141 212.492 146.305 212.492C145.141 212.492 144.383 211.672 144.383 210.477V210.336H150.156V209.641C150.156 207.094 148.617 205.445 146.18 205.445C143.703 205.445 142.141 207.18 142.141 209.852C142.141 212.531 143.688 214.18 146.266 214.18C148.336 214.18 149.836 213.078 150.086 211.438H147.992ZM146.203 207.133C147.219 207.133 147.914 207.867 147.961 208.938H144.406C144.484 207.891 145.203 207.133 146.203 207.133ZM156.992 214.133C158.039 214.133 159.078 213.609 159.547 212.719H159.594V214H161.797V208.242C161.797 206.555 160.398 205.445 158.25 205.445C156.031 205.445 154.648 206.562 154.562 208.188H156.648C156.758 207.57 157.297 207.148 158.148 207.148C159.008 207.148 159.555 207.602 159.555 208.383V208.938L157.445 209.062C155.359 209.188 154.188 210.07 154.188 211.594C154.188 213.102 155.398 214.133 156.992 214.133ZM157.742 212.484C156.969 212.484 156.453 212.094 156.453 211.469C156.453 210.875 156.938 210.492 157.789 210.43L159.555 210.32V210.93C159.555 211.836 158.734 212.484 157.742 212.484ZM169.555 214.133C170.789 214.133 171.758 213.484 172.164 212.562H172.203V214H174.453V202.727H172.172V207.062H172.125C171.719 206.133 170.781 205.492 169.57 205.492C167.469 205.492 166.141 207.141 166.141 209.797C166.141 212.477 167.461 214.133 169.555 214.133ZM170.328 207.32C171.461 207.32 172.188 208.289 172.188 209.812C172.188 211.344 171.461 212.297 170.328 212.297C169.18 212.297 168.477 211.352 168.477 209.812C168.477 208.281 169.18 207.32 170.328 207.32ZM181.523 211.438C181.312 212.078 180.672 212.492 179.836 212.492C178.672 212.492 177.914 211.672 177.914 210.477V210.336H183.688V209.641C183.688 207.094 182.148 205.445 179.711 205.445C177.234 205.445 175.672 207.18 175.672 209.852C175.672 212.531 177.219 214.18 179.797 214.18C181.867 214.18 183.367 213.078 183.617 211.438H181.523ZM179.734 207.133C180.75 207.133 181.445 207.867 181.492 208.938H177.938C178.016 207.891 178.734 207.133 179.734 207.133ZM184.867 214H187.148V209.195C187.148 208.109 187.797 207.359 188.82 207.359C189.844 207.359 190.359 207.984 190.359 209.078V214H192.641V208.602C192.641 206.641 191.594 205.469 189.734 205.469C188.445 205.469 187.562 206.078 187.117 207.117H187.07V205.625H184.867V214ZM194.695 203.695V205.625H193.516V207.344H194.695V211.742C194.695 213.375 195.461 214.031 197.43 214.031C197.891 214.031 198.281 213.992 198.516 213.938V212.258C198.375 212.281 198.164 212.297 197.961 212.297C197.289 212.297 196.977 211.992 196.977 211.352V207.344H198.523V205.625H196.977V203.695H194.695ZM200.945 204.492C201.609 204.492 202.133 203.961 202.133 203.32C202.133 202.672 201.609 202.148 200.945 202.148C200.281 202.148 199.758 202.672 199.758 203.32C199.758 203.961 200.281 204.492 200.945 204.492ZM199.812 214H202.094V205.625H199.812V214ZM203.477 208.086C203.477 209.344 204.297 210.156 205.914 210.5L207.344 210.797C208.164 210.984 208.453 211.234 208.453 211.68C208.453 212.227 207.922 212.578 207.062 212.578C206.156 212.578 205.633 212.188 205.492 211.453H203.266C203.414 213.102 204.75 214.18 207.062 214.18C209.219 214.18 210.727 213.094 210.727 211.445C210.727 210.219 210.008 209.531 208.258 209.164L206.828 208.859C205.984 208.68 205.672 208.391 205.672 207.961C205.672 207.406 206.195 207.047 206.984 207.047C207.828 207.047 208.336 207.508 208.406 208.188H210.508C210.461 206.547 209.133 205.445 206.984 205.445C204.852 205.445 203.477 206.492 203.477 208.086ZM212.461 203.695V205.625H211.281V207.344H212.461V211.742C212.461 213.375 213.227 214.031 215.195 214.031C215.656 214.031 216.047 213.992 216.281 213.938V212.258C216.141 212.281 215.93 212.297 215.727 212.297C215.055 212.297 214.742 211.992 214.742 211.352V207.344H216.289V205.625H214.742V203.695H212.461ZM223.195 214.133C224.242 214.133 225.281 213.609 225.75 212.719H225.797V214H228V208.242C228 206.555 226.602 205.445 224.453 205.445C222.234 205.445 220.852 206.562 220.766 208.188H222.852C222.961 207.57 223.5 207.148 224.352 207.148C225.211 207.148 225.758 207.602 225.758 208.383V208.938L223.648 209.062C221.562 209.188 220.391 210.07 220.391 211.594C220.391 213.102 221.602 214.133 223.195 214.133ZM223.945 212.484C223.172 212.484 222.656 212.094 222.656 211.469C222.656 210.875 223.141 210.492 223.992 210.43L225.758 210.32V210.93C225.758 211.836 224.938 212.484 223.945 212.484ZM234.367 205.492C233.156 205.492 232.227 206.102 231.773 207.086H231.727V205.625H229.477V216.734H231.758V212.594H231.805C232.25 213.539 233.188 214.133 234.406 214.133C236.5 214.133 237.797 212.508 237.797 209.812C237.797 207.109 236.492 205.492 234.367 205.492ZM233.602 212.297C232.484 212.297 231.75 211.328 231.75 209.812C231.75 208.312 232.484 207.32 233.602 207.32C234.742 207.32 235.461 208.297 235.461 209.812C235.461 211.336 234.742 212.297 233.602 212.297ZM243.867 205.492C242.656 205.492 241.727 206.102 241.273 207.086H241.227V205.625H238.977V216.734H241.258V212.594H241.305C241.75 213.539 242.688 214.133 243.906 214.133C246 214.133 247.297 212.508 247.297 209.812C247.297 207.109 245.992 205.492 243.867 205.492ZM243.102 212.297C241.984 212.297 241.25 211.328 241.25 209.812C241.25 208.312 241.984 207.32 243.102 207.32C244.242 207.32 244.961 208.297 244.961 209.812C244.961 211.336 244.242 212.297 243.102 212.297ZM252.32 214.18C254.852 214.18 256.469 212.562 256.469 209.805C256.469 207.086 254.828 205.445 252.32 205.445C249.812 205.445 248.172 207.094 248.172 209.805C248.172 212.555 249.789 214.18 252.32 214.18ZM252.32 212.438C251.195 212.438 250.484 211.492 250.484 209.812C250.484 208.148 251.211 207.188 252.32 207.188C253.43 207.188 254.148 208.148 254.148 209.812C254.148 211.492 253.438 212.438 252.32 212.438ZM258.82 204.492C259.484 204.492 260.008 203.961 260.008 203.32C260.008 202.672 259.484 202.148 258.82 202.148C258.156 202.148 257.633 202.672 257.633 203.32C257.633 203.961 258.156 204.492 258.82 204.492ZM257.688 214H259.969V205.625H257.688V214ZM261.492 214H263.773V209.195C263.773 208.109 264.422 207.359 265.445 207.359C266.469 207.359 266.984 207.984 266.984 209.078V214H269.266V208.602C269.266 206.641 268.219 205.469 266.359 205.469C265.07 205.469 264.188 206.078 263.742 207.117H263.695V205.625H261.492V214ZM271.32 203.695V205.625H270.141V207.344H271.32V211.742C271.32 213.375 272.086 214.031 274.055 214.031C274.516 214.031 274.906 213.992 275.141 213.938V212.258C275 212.281 274.789 212.297 274.586 212.297C273.914 212.297 273.602 211.992 273.602 211.352V207.344H275.148V205.625H273.602V203.695H271.32ZM276.398 214H278.68V208.945C278.68 208.008 279.266 207.352 280.133 207.352C280.977 207.352 281.484 207.883 281.484 208.781V214H283.68V208.914C283.68 207.984 284.25 207.352 285.117 207.352C286 207.352 286.484 207.883 286.484 208.852V214H288.766V208.281C288.766 206.594 287.664 205.469 286.023 205.469C284.797 205.469 283.797 206.133 283.422 207.188H283.375C283.094 206.094 282.25 205.469 281.039 205.469C279.898 205.469 279 206.133 278.648 207.141H278.602V205.625H276.398V214ZM295.758 211.438C295.547 212.078 294.906 212.492 294.07 212.492C292.906 212.492 292.148 211.672 292.148 210.477V210.336H297.922V209.641C297.922 207.094 296.383 205.445 293.945 205.445C291.469 205.445 289.906 207.18 289.906 209.852C289.906 212.531 291.453 214.18 294.031 214.18C296.102 214.18 297.602 213.078 297.852 211.438H295.758ZM293.969 207.133C294.984 207.133 295.68 207.867 295.727 208.938H292.172C292.25 207.891 292.969 207.133 293.969 207.133ZM299.102 214H301.383V209.195C301.383 208.109 302.031 207.359 303.055 207.359C304.078 207.359 304.594 207.984 304.594 209.078V214H306.875V208.602C306.875 206.641 305.828 205.469 303.969 205.469C302.68 205.469 301.797 206.078 301.352 207.117H301.305V205.625H299.102V214ZM308.93 203.695V205.625H307.75V207.344H308.93V211.742C308.93 213.375 309.695 214.031 311.664 214.031C312.125 214.031 312.516 213.992 312.75 213.938V212.258C312.609 212.281 312.398 212.297 312.195 212.297C311.523 212.297 311.211 211.992 311.211 211.352V207.344H312.758V205.625H311.211V203.695H308.93Z" fill="#F0F0F0"/>
<circle cx="86" cy="235" r="4" fill="#6FCF97"/>
<path d="M103.514 232.291H103.572L105.523 239H106.52L108.822 230.545H107.721L106.027 237.447H105.98L104.076 230.545H103.01L101.105 237.447H101.059L99.3652 230.545H98.2637L100.566 239H101.562L103.514 232.291ZM109.801 239H110.82V235.449C110.82 234.395 111.447 233.703 112.461 233.703C113.416 233.703 113.902 234.283 113.902 235.25V239H114.922V235.062C114.922 233.703 114.113 232.801 112.777 232.801C111.852 232.801 111.184 233.199 110.844 233.879H110.82V230.545H109.801V239ZM120.26 237.254C120.09 237.828 119.521 238.221 118.748 238.221C117.652 238.221 116.967 237.453 116.967 236.287V236.229H121.338V235.842C121.338 233.996 120.324 232.801 118.678 232.801C116.996 232.801 115.918 234.084 115.918 235.977C115.918 237.893 116.979 239.105 118.725 239.105C120.055 239.105 121.086 238.32 121.262 237.254H120.26ZM118.66 233.686C119.621 233.686 120.26 234.412 120.283 235.432H116.973C117.037 234.418 117.705 233.686 118.66 233.686ZM122.369 239H123.389V235.414C123.389 234.383 124.016 233.703 124.977 233.703C125.914 233.703 126.377 234.242 126.377 235.227V239H127.396V235.045C127.396 233.662 126.623 232.801 125.287 232.801C124.344 232.801 123.693 233.223 123.354 233.879H123.33V232.906H122.369V239ZM135.201 237.254C135.031 237.828 134.463 238.221 133.689 238.221C132.594 238.221 131.908 237.453 131.908 236.287V236.229H136.279V235.842C136.279 233.996 135.266 232.801 133.619 232.801C131.938 232.801 130.859 234.084 130.859 235.977C130.859 237.893 131.92 239.105 133.666 239.105C134.996 239.105 136.027 238.32 136.203 237.254H135.201ZM133.602 233.686C134.562 233.686 135.201 234.412 135.225 235.432H131.914C131.979 234.418 132.646 233.686 133.602 233.686ZM142.309 232.906H141.248L139.561 237.916H139.537L137.855 232.906H136.783L139.027 239H140.07L142.309 232.906ZM146.979 237.254C146.809 237.828 146.24 238.221 145.467 238.221C144.371 238.221 143.686 237.453 143.686 236.287V236.229H148.057V235.842C148.057 233.996 147.043 232.801 145.396 232.801C143.715 232.801 142.637 234.084 142.637 235.977C142.637 237.893 143.697 239.105 145.443 239.105C146.773 239.105 147.805 238.32 147.98 237.254H146.979ZM145.379 233.686C146.34 233.686 146.979 234.412 147.002 235.432H143.691C143.756 234.418 144.424 233.686 145.379 233.686ZM149.088 239H150.107V235.203C150.107 234.342 150.623 233.773 151.414 233.773C151.66 233.773 151.877 233.803 151.959 233.832V232.842C151.877 232.83 151.725 232.801 151.549 232.801C150.834 232.801 150.271 233.229 150.072 233.902H150.049V232.906H149.088V239Z" fill="white" fill-opacity="0.7"/>
<circle cx="173" cy="235" r="4" fill="#6FCF97"/>
<path d="M186.863 239V232.385H186.916L191.545 239H192.57V230.545H191.527V237.184H191.475L186.846 230.545H185.82V239H186.863ZM194.615 231.822C194.973 231.822 195.254 231.535 195.254 231.184C195.254 230.826 194.973 230.545 194.615 230.545C194.264 230.545 193.977 230.826 193.977 231.184C193.977 231.535 194.264 231.822 194.615 231.822ZM194.105 239H195.125V232.906H194.105V239ZM201.564 234.904C201.436 233.809 200.527 232.801 199.004 232.801C197.322 232.801 196.203 234.031 196.203 235.953C196.203 237.916 197.328 239.105 199.016 239.105C200.398 239.105 201.418 238.25 201.576 237.037H200.574C200.398 237.77 199.854 238.209 199.021 238.209C197.967 238.209 197.24 237.371 197.24 235.953C197.24 234.57 197.955 233.697 199.01 233.697C199.906 233.697 200.422 234.242 200.568 234.904H201.564ZM206.557 237.254C206.387 237.828 205.818 238.221 205.045 238.221C203.949 238.221 203.264 237.453 203.264 236.287V236.229H207.635V235.842C207.635 233.996 206.621 232.801 204.975 232.801C203.293 232.801 202.215 234.084 202.215 235.977C202.215 237.893 203.275 239.105 205.021 239.105C206.352 239.105 207.383 238.32 207.559 237.254H206.557ZM204.957 233.686C205.918 233.686 206.557 234.412 206.58 235.432H203.27C203.334 234.418 204.002 233.686 204.957 233.686ZM211.455 231.436V232.906H210.547V233.744H211.455V237.418C211.455 238.59 211.889 239.047 213.008 239.047C213.248 239.047 213.529 239.029 213.652 239V238.145C213.582 238.156 213.348 238.174 213.23 238.174C212.709 238.174 212.475 237.922 212.475 237.365V233.744H213.658V232.906H212.475V231.436H211.455ZM217.098 239.105C218.779 239.105 219.916 237.893 219.916 235.953C219.916 234.008 218.779 232.801 217.098 232.801C215.41 232.801 214.273 234.008 214.273 235.953C214.273 237.893 215.41 239.105 217.098 239.105ZM217.098 238.209C216.02 238.209 215.311 237.389 215.311 235.953C215.311 234.518 216.02 233.697 217.098 233.697C218.176 233.697 218.879 234.518 218.879 235.953C218.879 237.389 218.176 238.209 217.098 238.209ZM223.461 239H224.48V235.449C224.48 234.395 225.107 233.703 226.121 233.703C227.076 233.703 227.562 234.283 227.562 235.25V239H228.582V235.062C228.582 233.703 227.773 232.801 226.438 232.801C225.512 232.801 224.844 233.199 224.504 233.879H224.48V230.545H223.461V239ZM231.658 239.105C232.479 239.105 233.252 238.648 233.615 237.951H233.639V239H234.605V234.787C234.605 233.574 233.703 232.801 232.273 232.801C230.832 232.801 229.93 233.609 229.859 234.664H230.844C230.973 234.066 231.465 233.697 232.25 233.697C233.094 233.697 233.586 234.143 233.586 234.887V235.396L231.84 235.496C230.434 235.578 229.631 236.234 229.631 237.277C229.631 238.373 230.445 239.105 231.658 239.105ZM231.887 238.238C231.154 238.238 230.668 237.857 230.668 237.277C230.668 236.703 231.137 236.34 231.957 236.287L233.586 236.188V236.686C233.586 237.564 232.848 238.238 231.887 238.238ZM240.898 232.906H239.838L238.15 237.916H238.127L236.445 232.906H235.373L237.617 239H238.66L240.898 232.906ZM245.568 237.254C245.398 237.828 244.83 238.221 244.057 238.221C242.961 238.221 242.275 237.453 242.275 236.287V236.229H246.646V235.842C246.646 233.996 245.633 232.801 243.986 232.801C242.305 232.801 241.227 234.084 241.227 235.977C241.227 237.893 242.287 239.105 244.033 239.105C245.363 239.105 246.395 238.32 246.57 237.254H245.568ZM243.969 233.686C244.93 233.686 245.568 234.412 245.592 235.432H242.281C242.346 234.418 243.014 233.686 243.969 233.686Z" fill="white" fill-opacity="0.7"/>
<path d="M372.875 220.414H374.148C376.234 220.414 377.492 221.352 377.484 222.945C377.484 224.484 376.156 225.609 374.336 225.609C372.57 225.609 371.195 224.562 371.156 223.164H370.555C370.594 224.875 372.188 226.164 374.336 226.164C376.5 226.164 378.109 224.805 378.109 222.93C378.109 221.328 376.969 220.25 375.242 220.133V220.102C376.727 219.812 377.656 218.812 377.656 217.414C377.656 215.797 376.266 214.562 374.258 214.562C372.352 214.562 370.906 215.766 370.812 217.445H371.414C371.5 216.086 372.711 215.117 374.258 215.117C375.898 215.117 377.031 216.117 377.031 217.469C377.031 218.875 375.852 219.867 374.133 219.867H372.875V220.414ZM382.5 226H383.109V214.727H382.5L379.406 216.719V217.367L382.484 215.406H382.5V226Z" fill="white"/>
<rect x="66.5" y="183.5" width="342" height="74" rx="7.5" stroke="#393939"/>
<defs>
<filter id="filter0_i" x="66" y="1" width="158" height="78" filterUnits="userSpaceOnUse" color-interpolation-filters="sRGB">
<feFlood flood-opacity="0" result="BackgroundImageFix"/>
<feBlend mode="normal" in="SourceGraphic" in2="BackgroundImageFix" result="shape"/>
<feColorMatrix in="SourceAlpha" type="matrix" values="0 0 0 0 0 0 0 0 0 0 0 0 0 0 0 0 0 0 127 0" result="hardAlpha"/>
<feOffset dx="1" dy="3"/>
<feGaussianBlur stdDeviation="3"/>
<feComposite in2="hardAlpha" operator="arithmetic" k2="-1" k3="1"/>
<feColorMatrix type="matrix" values="0 0 0 0 0 0 0 0 0 0 0 0 0 0 0 0 0 0 0.2 0"/>
<feBlend mode="normal" in2="shape" result="effect1_innerShadow"/>
</filter>
<filter id="filter1_i" x="252" y="92" width="158" height="78" filterUnits="userSpaceOnUse" color-interpolation-filters="sRGB">
<feFlood flood-opacity="0" result="BackgroundImageFix"/>
<feBlend mode="normal" in="SourceGraphic" in2="BackgroundImageFix" result="shape"/>
<feColorMatrix in="SourceAlpha" type="matrix" values="0 0 0 0 0 0 0 0 0 0 0 0 0 0 0 0 0 0 127 0" result="hardAlpha"/>
<feOffset dx="1" dy="3"/>
<feGaussianBlur stdDeviation="3"/>
<feComposite in2="hardAlpha" operator="arithmetic" k2="-1" k3="1"/>
<feColorMatrix type="matrix" values="0 0 0 0 0 0 0 0 0 0 0 0 0 0 0 0 0 0 0.2 0"/>
<feBlend mode="normal" in2="shape" result="effect1_innerShadow"/>
</filter>
<linearGradient id="paint0_linear" x1="66" y1="1" x2="67.8556" y2="79.6599" gradientUnits="userSpaceOnUse">
<stop stop-color="#44FF8F"/>
<stop offset="1" stop-color="#24FFB0" stop-opacity="0.85"/>
</linearGradient>
<linearGradient id="paint1_linear" x1="66" y1="1" x2="67.8556" y2="79.6599" gradientUnits="userSpaceOnUse">
<stop stop-color="#44FF8F"/>
<stop offset="1" stop-color="#24FFB0" stop-opacity="0.85"/>
</linearGradient>
<linearGradient id="paint2_linear" x1="252" y1="92" x2="253.856" y2="170.66" gradientUnits="userSpaceOnUse">
<stop stop-color="#FF4F44"/>
<stop offset="1" stop-color="#FF7144" stop-opacity="0.85"/>
</linearGradient>
<linearGradient id="paint3_linear" x1="252" y1="92" x2="253.856" y2="170.66" gradientUnits="userSpaceOnUse">
<stop stop-color="#FF4F44"/>
<stop offset="1" stop-color="#FF7144" stop-opacity="0.85"/>
</linearGradient>
<linearGradient id="paint4_linear" x1="479" y1="0.999977" x2="136" y2="76" gradientUnits="userSpaceOnUse">
<stop stop-color="#323131"/>
<stop offset="1" stop-color="#2C2C2C"/>
</linearGradient>
<linearGradient id="paint5_linear" x1="344" y1="92" x2="1" y2="167" gradientUnits="userSpaceOnUse">
<stop stop-color="#323131"/>
<stop offset="1" stop-color="#2C2C2C"/>
</linearGradient>
<linearGradient id="paint6_linear" x1="409" y1="183" x2="66" y2="258" gradientUnits="userSpaceOnUse">
<stop stop-color="#323131"/>
<stop offset="1" stop-color="#2C2C2C"/>
</linearGradient>
</defs>
</svg>
