<svg width="374" height="551" viewBox="0 0 374 551" fill="none" xmlns="http://www.w3.org/2000/svg">
<g filter="url(#filter0_ddd)">
<rect x="0.5" y="42.5" width="374" height="508" rx="35.5" fill="url(#paint0_linear)" stroke="#393939"/>
<line x1="148" y1="64" x2="226" y2="64" stroke="#4F4F4F" stroke-width="4" stroke-linecap="round" stroke-linejoin="round"/>
<g filter="url(#filter1_i)">
<rect x="24" y="239" width="249" height="16" rx="8" fill="#4F4F4F"/>
</g>
<g filter="url(#filter2_dd)">
<rect x="78" y="231" width="32" height="32" rx="16" fill="#F2C94C"/>
</g>
<path d="M312.508 247.773H313.922C315.508 247.773 316.5 248.555 316.492 249.945C316.484 251.125 315.492 251.969 314.008 251.969C312.508 251.969 311.453 251.211 311.367 250.016H310.016C310.117 251.883 311.672 253.188 314.008 253.188C316.219 253.188 317.922 251.836 317.922 249.898C317.922 248.297 316.805 247.273 315.164 247.133V247.102C316.578 246.805 317.555 245.844 317.555 244.445C317.555 242.836 316.25 241.539 313.992 241.539C311.883 241.539 310.398 242.766 310.242 244.68H311.594C311.68 243.461 312.664 242.758 313.992 242.758C315.438 242.758 316.141 243.516 316.141 244.633C316.141 245.758 315.203 246.586 313.859 246.586H312.508V247.773ZM322.781 244.545V253H323.244V249.59H325.477C327.123 249.59 328.195 248.6 328.195 247.07C328.195 245.541 327.123 244.545 325.482 244.545H322.781ZM323.244 244.967H325.406C326.836 244.967 327.727 245.764 327.727 247.07C327.727 248.371 326.83 249.168 325.406 249.168H323.244V244.967ZM331.523 253.094C333.141 253.094 334.242 251.887 334.242 249.953C334.242 248.02 333.141 246.812 331.523 246.812C329.906 246.812 328.811 248.02 328.811 249.953C328.811 251.887 329.906 253.094 331.523 253.094ZM331.523 252.684C330.17 252.684 329.268 251.646 329.268 249.953C329.268 248.26 330.17 247.223 331.523 247.223C332.877 247.223 333.785 248.26 333.785 249.953C333.785 251.641 332.877 252.684 331.523 252.684ZM335.572 245.406C335.771 245.406 335.93 245.248 335.93 245.049C335.93 244.85 335.771 244.691 335.572 244.691C335.379 244.691 335.209 244.85 335.209 245.049C335.209 245.248 335.379 245.406 335.572 245.406ZM335.344 253H335.801V246.906H335.344V253ZM337.201 253H337.658V249.361C337.658 248.096 338.467 247.223 339.645 247.223C340.775 247.223 341.52 247.932 341.52 249.109V253H341.977V249.051C341.977 247.68 341.092 246.812 339.75 246.812C338.713 246.812 337.916 247.393 337.641 248.23H337.629V246.906H337.201V253ZM343.635 245.307V246.906H342.727V247.299H343.635V251.611C343.635 252.619 344.016 253.012 344.906 253.012C344.977 253.012 345.352 253.006 345.393 253V252.602C345.369 252.602 345 252.607 344.971 252.607C344.355 252.607 344.086 252.32 344.086 251.6V247.299H345.311V246.906H344.086V245.307H343.635ZM346.295 248.465C346.295 249.262 346.822 249.736 347.988 250.006L348.838 250.199C349.822 250.434 350.203 250.773 350.203 251.424C350.203 252.174 349.477 252.701 348.434 252.701C347.414 252.701 346.658 252.127 346.547 251.266H346.096C346.189 252.35 347.139 253.094 348.439 253.094C349.734 253.094 350.66 252.391 350.66 251.395C350.66 250.551 350.186 250.094 348.973 249.807L348.123 249.607C347.145 249.379 346.74 249.039 346.74 248.447C346.74 247.727 347.426 247.205 348.369 247.205C349.342 247.205 349.998 247.762 350.121 248.67H350.561C350.449 247.533 349.617 246.812 348.369 246.812C347.156 246.812 346.295 247.504 346.295 248.465Z" fill="white"/>
<path d="M34.5352 166.824H34.5938L39.0938 182H39.9141L44.6367 165.09H43.6641L39.5039 180.395H39.4453L34.9922 165.09H34.125L29.6836 180.395H29.625L25.4531 165.09H24.4922L29.2148 182H30.0352L34.5352 166.824ZM46.4414 182H47.3438V174.734C47.3438 172.203 48.9961 170.445 51.3867 170.445C53.6484 170.445 55.1367 171.887 55.1367 174.23V182H56.0391V174.113C56.0391 171.395 54.2578 169.625 51.5859 169.625C49.5352 169.625 47.918 170.773 47.3789 172.461H47.3438V165.09H46.4414V182ZM67.5703 178.59C67.207 180.184 65.7539 181.379 63.5156 181.379C60.7852 181.379 58.9922 179.422 58.9922 176.105V176.059H68.6367V175.543C68.6367 172.004 66.5625 169.625 63.4102 169.625C60.1875 169.625 58.0664 172.133 58.0664 175.918C58.0664 179.855 60.1875 182.188 63.5039 182.188C66.2227 182.188 68.0742 180.652 68.4844 178.59H67.5703ZM63.3984 170.434C65.9648 170.434 67.6875 172.414 67.6992 175.297H59.0039C59.1328 172.391 60.8672 170.434 63.3984 170.434ZM70.7227 182H71.6367V174.723C71.6367 172.191 73.2539 170.445 75.6094 170.445C77.8711 170.445 79.3594 171.863 79.3594 174.219V182H80.2734V174.102C80.2734 171.359 78.5039 169.625 75.8203 169.625C73.7461 169.625 72.1523 170.785 71.6016 172.461H71.5781V169.812H70.7227V182ZM82.2656 169.156H83.1562C83.3555 167.082 84.8672 165.723 86.8945 165.723C88.9805 165.723 90.5508 167.117 90.5508 169.074C90.5508 170.34 89.9297 171.289 88.3242 172.438C86.6133 173.645 86.0391 174.523 86.0508 176.07V177.219H86.9531V176.164C86.9531 174.793 87.3984 174.09 89.0039 172.988C90.75 171.77 91.5 170.645 91.5 169.039C91.5 166.684 89.5781 164.891 86.918 164.891C84.2578 164.891 82.418 166.73 82.2656 169.156ZM86.543 182.094C86.9766 182.094 87.3164 181.742 87.3164 181.309C87.3164 180.875 86.9766 180.535 86.543 180.535C86.1094 180.535 85.7578 180.875 85.7578 181.309C85.7578 181.742 86.1094 182.094 86.543 182.094Z" fill="#BDBDBD"/>
<circle cx="28" cy="205.5" r="4" fill="#6FCF97"/>
<path d="M45.7344 211.188C48.2266 211.188 49.8984 209.945 50.4141 207.719H48.9922C48.5859 209.094 47.3984 209.891 45.7422 209.891C43.5156 209.891 42.1016 208.125 42.1016 205.359C42.1016 202.617 43.5312 200.836 45.7344 200.836C47.3438 200.836 48.6328 201.805 48.9922 203.281H50.4141C50.0547 201.031 48.1875 199.539 45.7344 199.539C42.6484 199.539 40.6562 201.82 40.6562 205.359C40.6562 208.93 42.625 211.188 45.7344 211.188ZM54.2422 211.141C55.3359 211.141 56.3672 210.531 56.8516 209.602H56.8828V211H58.1719V205.383C58.1719 203.766 56.9688 202.734 55.0625 202.734C53.1406 202.734 51.9375 203.812 51.8438 205.219H53.1562C53.3281 204.422 53.9844 203.93 55.0312 203.93C56.1562 203.93 56.8125 204.523 56.8125 205.516V206.195L54.4844 206.328C52.6094 206.438 51.5391 207.312 51.5391 208.703C51.5391 210.164 52.625 211.141 54.2422 211.141ZM54.5469 209.984C53.5703 209.984 52.9219 209.477 52.9219 208.703C52.9219 207.938 53.5469 207.453 54.6406 207.383L56.8125 207.25V207.914C56.8125 209.086 55.8281 209.984 54.5469 209.984ZM59.8984 211H61.2578V206.219C61.2578 204.844 62.0938 203.938 63.375 203.938C64.625 203.938 65.2422 204.656 65.2422 205.969V211H66.6016V205.727C66.6016 203.883 65.5703 202.734 63.7891 202.734C62.5312 202.734 61.6641 203.297 61.2109 204.172H61.1797V202.875H59.8984V211ZM81.9531 202.875H80.6094L78.9844 209.484H78.9531L77.1094 202.875H75.7969L73.9609 209.484H73.9297L72.3047 202.875H70.9531L73.2266 211H74.6094L76.4375 204.711H76.4688L78.3047 211H79.6875L81.9531 202.875ZM85.2891 211.141C86.3828 211.141 87.4141 210.531 87.8984 209.602H87.9297V211H89.2188V205.383C89.2188 203.766 88.0156 202.734 86.1094 202.734C84.1875 202.734 82.9844 203.812 82.8906 205.219H84.2031C84.375 204.422 85.0312 203.93 86.0781 203.93C87.2031 203.93 87.8594 204.523 87.8594 205.516V206.195L85.5312 206.328C83.6562 206.438 82.5859 207.312 82.5859 208.703C82.5859 210.164 83.6719 211.141 85.2891 211.141ZM85.5938 209.984C84.6172 209.984 83.9688 209.477 83.9688 208.703C83.9688 207.938 84.5938 207.453 85.6875 207.383L87.8594 207.25V207.914C87.8594 209.086 86.875 209.984 85.5938 209.984ZM91.6953 201.43C92.1719 201.43 92.5469 201.047 92.5469 200.578C92.5469 200.102 92.1719 199.727 91.6953 199.727C91.2266 199.727 90.8438 200.102 90.8438 200.578C90.8438 201.047 91.2266 201.43 91.6953 201.43ZM91.0156 211H92.375V202.875H91.0156V211ZM94.6484 200.914V202.875H93.4375V203.992H94.6484V208.891C94.6484 210.453 95.2266 211.062 96.7188 211.062C97.0391 211.062 97.4141 211.039 97.5781 211V209.859C97.4844 209.875 97.1719 209.898 97.0156 209.898C96.3203 209.898 96.0078 209.562 96.0078 208.82V203.992H97.5859V202.875H96.0078V200.914H94.6484ZM104.695 211.141C105.789 211.141 106.82 210.531 107.305 209.602H107.336V211H108.625V205.383C108.625 203.766 107.422 202.734 105.516 202.734C103.594 202.734 102.391 203.812 102.297 205.219H103.609C103.781 204.422 104.438 203.93 105.484 203.93C106.609 203.93 107.266 204.523 107.266 205.516V206.195L104.938 206.328C103.062 206.438 101.992 207.312 101.992 208.703C101.992 210.164 103.078 211.141 104.695 211.141ZM105 209.984C104.023 209.984 103.375 209.477 103.375 208.703C103.375 207.938 104 207.453 105.094 207.383L107.266 207.25V207.914C107.266 209.086 106.281 209.984 105 209.984ZM114.07 211H115.43V203.992H117.086V202.875H115.422V201.977C115.422 201.172 115.773 200.781 116.508 200.781C116.734 200.781 116.961 200.805 117.125 200.828V199.727C116.93 199.695 116.602 199.664 116.297 199.664C114.797 199.664 114.07 200.406 114.07 201.969V202.875H112.938V203.992H114.07V211ZM123.492 208.672C123.266 209.438 122.508 209.961 121.477 209.961C120.016 209.961 119.102 208.938 119.102 207.383V207.305H124.93V206.789C124.93 204.328 123.578 202.734 121.383 202.734C119.141 202.734 117.703 204.445 117.703 206.969C117.703 209.523 119.117 211.141 121.445 211.141C123.219 211.141 124.594 210.094 124.828 208.672H123.492ZM121.359 203.914C122.641 203.914 123.492 204.883 123.523 206.242H119.109C119.195 204.891 120.086 203.914 121.359 203.914ZM136.641 202.875H135.297L133.672 209.484H133.641L131.797 202.875H130.484L128.648 209.484H128.617L126.992 202.875H125.641L127.914 211H129.297L131.125 204.711H131.156L132.992 211H134.375L136.641 202.875ZM144.117 211.141C145.289 211.141 146.219 210.562 146.742 209.625H146.766V211H148.062V199.727H146.703V204.195H146.672C146.188 203.305 145.25 202.734 144.086 202.734C142.039 202.734 140.641 204.391 140.641 206.938C140.641 209.484 142.047 211.141 144.117 211.141ZM144.375 203.93C145.773 203.93 146.711 205.125 146.711 206.938C146.711 208.758 145.773 209.945 144.375 209.945C142.938 209.945 142.031 208.781 142.031 206.938C142.031 205.102 142.938 203.93 144.375 203.93ZM152.273 211.141C153.367 211.141 154.398 210.531 154.883 209.602H154.914V211H156.203V205.383C156.203 203.766 155 202.734 153.094 202.734C151.172 202.734 149.969 203.812 149.875 205.219H151.188C151.359 204.422 152.016 203.93 153.062 203.93C154.188 203.93 154.844 204.523 154.844 205.516V206.195L152.516 206.328C150.641 206.438 149.57 207.312 149.57 208.703C149.57 210.164 150.656 211.141 152.273 211.141ZM152.578 209.984C151.602 209.984 150.953 209.477 150.953 208.703C150.953 207.938 151.578 207.453 152.672 207.383L154.844 207.25V207.914C154.844 209.086 153.859 209.984 152.578 209.984ZM158.609 214.039C160.078 214.039 160.75 213.469 161.445 211.57L164.641 202.875H163.211L160.961 209.641H160.938L158.688 202.875H157.234L160.234 211.008L160.047 211.578C159.734 212.523 159.312 212.891 158.555 212.891C158.383 212.891 158.172 212.883 158.023 212.852V213.992C158.172 214.023 158.445 214.039 158.609 214.039ZM165.57 205.117C165.57 206.289 166.312 207 167.844 207.367L169.133 207.68C170.062 207.906 170.383 208.242 170.383 208.828C170.383 209.562 169.703 210.031 168.602 210.031C167.5 210.031 166.875 209.586 166.711 208.656H165.352C165.508 210.18 166.695 211.141 168.602 211.141C170.414 211.141 171.75 210.141 171.75 208.727C171.75 207.562 171.156 206.922 169.516 206.523L168.227 206.211C167.32 205.992 166.906 205.609 166.906 205.047C166.906 204.336 167.562 203.844 168.555 203.844C169.555 203.844 170.18 204.367 170.281 205.219H171.578C171.523 203.781 170.336 202.734 168.555 202.734C166.797 202.734 165.57 203.727 165.57 205.117Z" fill="#F2F2F2"/>
<g filter="url(#filter3_i)">
<rect x="24" y="367" width="249" height="16" rx="8" fill="#4F4F4F"/>
</g>
<g filter="url(#filter4_dd)">
<rect x="223" y="359" width="32" height="32" rx="16" fill="#F2C94C"/>
</g>
<path d="M303.453 372.984H304.812C304.812 371.719 305.859 370.766 307.25 370.766C308.539 370.766 309.367 371.648 309.367 372.758C309.367 373.695 309.016 374.305 307.492 375.891L303.523 380.031V381H310.961V379.75H305.453V379.719L308.133 376.969C310.203 374.844 310.773 373.914 310.773 372.672C310.773 370.961 309.336 369.539 307.25 369.539C305.078 369.539 303.453 371.008 303.453 372.984ZM315.461 381H316.82V369.727H315.445L312.445 371.883V373.297L315.43 371.219H315.461V381ZM322.781 372.545V381H323.244V377.59H325.477C327.123 377.59 328.195 376.6 328.195 375.07C328.195 373.541 327.123 372.545 325.482 372.545H322.781ZM323.244 372.967H325.406C326.836 372.967 327.727 373.764 327.727 375.07C327.727 376.371 326.83 377.168 325.406 377.168H323.244V372.967ZM331.523 381.094C333.141 381.094 334.242 379.887 334.242 377.953C334.242 376.02 333.141 374.812 331.523 374.812C329.906 374.812 328.811 376.02 328.811 377.953C328.811 379.887 329.906 381.094 331.523 381.094ZM331.523 380.684C330.17 380.684 329.268 379.646 329.268 377.953C329.268 376.26 330.17 375.223 331.523 375.223C332.877 375.223 333.785 376.26 333.785 377.953C333.785 379.641 332.877 380.684 331.523 380.684ZM335.572 373.406C335.771 373.406 335.93 373.248 335.93 373.049C335.93 372.85 335.771 372.691 335.572 372.691C335.379 372.691 335.209 372.85 335.209 373.049C335.209 373.248 335.379 373.406 335.572 373.406ZM335.344 381H335.801V374.906H335.344V381ZM337.201 381H337.658V377.361C337.658 376.096 338.467 375.223 339.645 375.223C340.775 375.223 341.52 375.932 341.52 377.109V381H341.977V377.051C341.977 375.68 341.092 374.812 339.75 374.812C338.713 374.812 337.916 375.393 337.641 376.23H337.629V374.906H337.201V381ZM343.635 373.307V374.906H342.727V375.299H343.635V379.611C343.635 380.619 344.016 381.012 344.906 381.012C344.977 381.012 345.352 381.006 345.393 381V380.602C345.369 380.602 345 380.607 344.971 380.607C344.355 380.607 344.086 380.32 344.086 379.6V375.299H345.311V374.906H344.086V373.307H343.635ZM346.295 376.465C346.295 377.262 346.822 377.736 347.988 378.006L348.838 378.199C349.822 378.434 350.203 378.773 350.203 379.424C350.203 380.174 349.477 380.701 348.434 380.701C347.414 380.701 346.658 380.127 346.547 379.266H346.096C346.189 380.35 347.139 381.094 348.439 381.094C349.734 381.094 350.66 380.391 350.66 379.395C350.66 378.551 350.186 378.094 348.973 377.807L348.123 377.607C347.145 377.379 346.74 377.039 346.74 376.447C346.74 375.727 347.426 375.205 348.369 375.205C349.342 375.205 349.998 375.762 350.121 376.67H350.561C350.449 375.533 349.617 374.812 348.369 374.812C347.156 374.812 346.295 375.504 346.295 376.465Z" fill="white"/>
<path d="M26.4258 310V293.09H25.5V310H26.4258ZM29.2852 310H30.1992V302.723C30.1992 300.133 31.6172 298.445 33.6562 298.445C35.5195 298.445 36.8438 299.84 36.8438 301.949V310H37.7461V302.418C37.7461 300.074 39.1406 298.445 41.1914 298.445C43.1836 298.445 44.3906 299.793 44.3906 301.984V310H45.3047V301.773C45.3047 299.242 43.7461 297.625 41.4023 297.625C39.4102 297.625 37.957 298.949 37.5352 300.52H37.5C37.1367 298.902 35.7656 297.625 33.8438 297.625C31.9219 297.625 30.6211 298.844 30.1641 300.461H30.1406V297.812H29.2852V310ZM53.3555 297.625C51.0938 297.625 49.3711 299.125 48.8086 301.082H48.7734V297.812H47.918V313.996H48.832V306.801H48.8555C49.3945 308.699 51.1172 310.188 53.3672 310.188C56.4258 310.188 58.5234 307.656 58.5234 303.906C58.5234 300.156 56.4141 297.625 53.3555 297.625ZM53.25 309.367C50.6367 309.367 48.8203 307.141 48.8203 303.906C48.8203 300.672 50.6367 298.445 53.25 298.445C55.8398 298.445 57.5977 300.66 57.5977 303.918C57.5977 307.164 55.8398 309.367 53.25 309.367ZM64.2891 310.188C66.3281 310.188 68.1562 309.039 68.7773 307.387H68.8008V310H69.6797V301.762C69.6797 299.219 68.0156 297.625 65.3438 297.625C62.6836 297.625 60.9258 299.09 60.6914 301.352H61.5703C61.875 299.512 63.2109 298.445 65.332 298.445C67.4883 298.445 68.7656 299.723 68.7656 301.832V302.922L64.5703 303.215C61.7578 303.438 60.2578 304.633 60.2578 306.719C60.2578 308.77 61.9102 310.188 64.2891 310.188ZM64.418 309.391C62.5312 309.391 61.1719 308.277 61.1719 306.719C61.1719 305.102 62.4141 304.141 64.6992 303.965L68.7656 303.672V305.477C68.7656 307.645 66.8203 309.391 64.418 309.391ZM81.9375 301.492C81.5742 299.312 79.6875 297.625 77.0508 297.625C73.793 297.625 71.6836 300.062 71.6836 303.906C71.6836 307.785 73.7812 310.188 77.0625 310.188C79.6523 310.188 81.5625 308.641 81.9258 306.426H81.0234C80.6484 308.172 79.1367 309.367 77.0625 309.367C74.332 309.367 72.5977 307.27 72.5977 303.906C72.5977 300.566 74.332 298.445 77.0625 298.445C79.1602 298.445 80.6719 299.746 81.0352 301.492H81.9375ZM84.6211 294.613V297.812H82.8047V298.598H84.6211V307.223C84.6211 309.238 85.3828 310.023 87.1641 310.023C87.3047 310.023 88.0547 310.012 88.1367 310V309.203C88.0898 309.203 87.3516 309.215 87.293 309.215C86.0625 309.215 85.5234 308.641 85.5234 307.199V298.598H87.9727V297.812H85.5234V294.613H84.6211Z" fill="#BDBDBD"/>
<circle cx="28" cy="333.5" r="4" fill="#EB5757"/>
<path d="M52.2031 339V327.727H50.5703L46.6797 337.211H46.6172L42.7266 327.727H41.0938V339H42.4062V330.312H42.4609L46.0547 339H47.2422L50.8359 330.312H50.8906V339H52.2031ZM60.8516 330.875H59.4922V335.648C59.4922 337.031 58.6953 337.938 57.375 337.938C56.1172 337.938 55.5 337.227 55.5 335.906V330.875H54.1406V336.148C54.1406 337.992 55.1797 339.141 56.9531 339.141C58.2031 339.141 59.0469 338.617 59.5312 337.68H59.5625V339H60.8516V330.875ZM62.4766 333.117C62.4766 334.289 63.2188 335 64.75 335.367L66.0391 335.68C66.9688 335.906 67.2891 336.242 67.2891 336.828C67.2891 337.562 66.6094 338.031 65.5078 338.031C64.4062 338.031 63.7812 337.586 63.6172 336.656H62.2578C62.4141 338.18 63.6016 339.141 65.5078 339.141C67.3203 339.141 68.6562 338.141 68.6562 336.727C68.6562 335.562 68.0625 334.922 66.4219 334.523L65.1328 334.211C64.2266 333.992 63.8125 333.609 63.8125 333.047C63.8125 332.336 64.4688 331.844 65.4609 331.844C66.4609 331.844 67.0859 332.367 67.1875 333.219H68.4844C68.4297 331.781 67.2422 330.734 65.4609 330.734C63.7031 330.734 62.4766 331.727 62.4766 333.117ZM70.5078 328.914V330.875H69.2969V331.992H70.5078V336.891C70.5078 338.453 71.0859 339.062 72.5781 339.062C72.8984 339.062 73.2734 339.039 73.4375 339V337.859C73.3438 337.875 73.0312 337.898 72.875 337.898C72.1797 337.898 71.8672 337.562 71.8672 336.82V331.992H73.4453V330.875H71.8672V328.914H70.5078ZM78.25 339H79.6094V334.266C79.6094 332.859 80.4453 331.938 81.7969 331.938C83.0703 331.938 83.7188 332.711 83.7188 334V339H85.0781V333.75C85.0781 331.938 84 330.734 82.2188 330.734C80.9844 330.734 80.0938 331.266 79.6406 332.172H79.6094V327.727H78.25V339ZM89.1797 339.141C90.2734 339.141 91.3047 338.531 91.7891 337.602H91.8203V339H93.1094V333.383C93.1094 331.766 91.9062 330.734 90 330.734C88.0781 330.734 86.875 331.812 86.7812 333.219H88.0938C88.2656 332.422 88.9219 331.93 89.9688 331.93C91.0938 331.93 91.75 332.523 91.75 333.516V334.195L89.4219 334.328C87.5469 334.438 86.4766 335.312 86.4766 336.703C86.4766 338.164 87.5625 339.141 89.1797 339.141ZM89.4844 337.984C88.5078 337.984 87.8594 337.477 87.8594 336.703C87.8594 335.938 88.4844 335.453 89.5781 335.383L91.75 335.25V335.914C91.75 337.086 90.7656 337.984 89.4844 337.984ZM98.7812 330.734C97.6016 330.734 96.6562 331.336 96.1562 332.25H96.125V330.875H94.8359V341.711H96.1953V337.68H96.2266C96.7109 338.57 97.6484 339.141 98.8125 339.141C100.859 339.141 102.258 337.484 102.258 334.938C102.258 332.391 100.852 330.734 98.7812 330.734ZM98.5156 337.945C97.125 337.945 96.1875 336.75 96.1875 334.938C96.1875 333.133 97.125 331.93 98.5156 331.93C99.9609 331.93 100.867 333.102 100.867 334.938C100.867 336.781 99.9609 337.945 98.5156 337.945ZM107.578 330.734C106.398 330.734 105.453 331.336 104.953 332.25H104.922V330.875H103.633V341.711H104.992V337.68H105.023C105.508 338.57 106.445 339.141 107.609 339.141C109.656 339.141 111.055 337.484 111.055 334.938C111.055 332.391 109.648 330.734 107.578 330.734ZM107.312 337.945C105.922 337.945 104.984 336.75 104.984 334.938C104.984 333.133 105.922 331.93 107.312 331.93C108.758 331.93 109.664 333.102 109.664 334.938C109.664 336.781 108.758 337.945 107.312 337.945ZM117.82 336.672C117.594 337.438 116.836 337.961 115.805 337.961C114.344 337.961 113.43 336.938 113.43 335.383V335.305H119.258V334.789C119.258 332.328 117.906 330.734 115.711 330.734C113.469 330.734 112.031 332.445 112.031 334.969C112.031 337.523 113.445 339.141 115.773 339.141C117.547 339.141 118.922 338.094 119.156 336.672H117.82ZM115.688 331.914C116.969 331.914 117.82 332.883 117.852 334.242H113.438C113.523 332.891 114.414 331.914 115.688 331.914ZM120.633 339H121.992V334.219C121.992 332.844 122.828 331.938 124.109 331.938C125.359 331.938 125.977 332.656 125.977 333.969V339H127.336V333.727C127.336 331.883 126.305 330.734 124.523 330.734C123.266 330.734 122.398 331.297 121.945 332.172H121.914V330.875H120.633V339Z" fill="#F2F2F2"/>
<path d="M35.0273 107.582H35.1445L39.0469 121H41.0391L45.6445 104.09H43.4414L40.0547 117.895H39.9609L36.1523 104.09H34.0195L30.2109 117.895H30.1172L26.7305 104.09H24.5273L29.1328 121H31.125L35.0273 107.582ZM47.6016 121H49.6406V113.898C49.6406 111.789 50.8945 110.406 52.9219 110.406C54.832 110.406 55.8047 111.566 55.8047 113.5V121H57.8438V113.125C57.8438 110.406 56.2266 108.602 53.5547 108.602C51.7031 108.602 50.3672 109.398 49.6875 110.758H49.6406V104.09H47.6016V121ZM63.9961 121.211C65.6367 121.211 67.1836 120.297 67.9102 118.902H67.957V121H69.8906V112.574C69.8906 110.148 68.0859 108.602 65.2266 108.602C62.3438 108.602 60.5391 110.219 60.3984 112.328H62.3672C62.625 111.133 63.6094 110.395 65.1797 110.395C66.8672 110.395 67.8516 111.285 67.8516 112.773V113.793L64.3594 113.992C61.5469 114.156 59.9414 115.469 59.9414 117.555C59.9414 119.746 61.5703 121.211 63.9961 121.211ZM64.4531 119.477C62.9883 119.477 62.0156 118.715 62.0156 117.555C62.0156 116.406 62.9531 115.68 64.5938 115.574L67.8516 115.375V116.371C67.8516 118.129 66.375 119.477 64.4531 119.477ZM73.1367 105.871V108.812H71.3203V110.488H73.1367V117.836C73.1367 120.18 74.0039 121.094 76.2422 121.094C76.7227 121.094 77.2852 121.059 77.5312 121V119.289C77.3906 119.312 76.9219 119.348 76.6875 119.348C75.6445 119.348 75.1758 118.844 75.1758 117.73V110.488H77.543V108.812H75.1758V105.871H73.1367ZM81.2461 110.055L82.8516 104.09H80.6836L79.5469 110.055H81.2461ZM83.707 112.176C83.707 113.934 84.8203 115 87.1172 115.551L89.0508 116.02C90.4453 116.359 90.9258 116.863 90.9258 117.742C90.9258 118.844 89.9062 119.547 88.2539 119.547C86.6016 119.547 85.6641 118.879 85.418 117.484H83.3789C83.6133 119.77 85.3945 121.211 88.2539 121.211C90.9727 121.211 92.9766 119.711 92.9766 117.59C92.9766 115.844 92.0859 114.883 89.625 114.285L87.6914 113.816C86.332 113.488 85.7109 112.914 85.7109 112.07C85.7109 111.004 86.6953 110.266 88.1836 110.266C89.6836 110.266 90.6211 111.051 90.7734 112.328H92.7188C92.6367 110.172 90.8555 108.602 88.1836 108.602C85.5469 108.602 83.707 110.09 83.707 112.176ZM100.02 121H102.059V113.828C102.059 111.766 103.312 110.406 105.234 110.406C107.109 110.406 108.035 111.484 108.035 113.453V121H110.074V113.09C110.074 110.324 108.527 108.602 105.855 108.602C103.969 108.602 102.668 109.445 101.988 110.758H101.941V108.812H100.02V121ZM120.762 117.508C120.422 118.656 119.285 119.441 117.738 119.441C115.547 119.441 114.176 117.906 114.176 115.574V115.457H122.918V114.684C122.918 110.992 120.891 108.602 117.598 108.602C114.234 108.602 112.078 111.168 112.078 114.953C112.078 118.785 114.199 121.211 117.691 121.211C120.352 121.211 122.414 119.641 122.766 117.508H120.762ZM117.562 110.371C119.484 110.371 120.762 111.824 120.809 113.863H114.188C114.316 111.836 115.652 110.371 117.562 110.371ZM133.066 117.508C132.727 118.656 131.59 119.441 130.043 119.441C127.852 119.441 126.48 117.906 126.48 115.574V115.457H135.223V114.684C135.223 110.992 133.195 108.602 129.902 108.602C126.539 108.602 124.383 111.168 124.383 114.953C124.383 118.785 126.504 121.211 129.996 121.211C132.656 121.211 134.719 119.641 135.07 117.508H133.066ZM129.867 110.371C131.789 110.371 133.066 111.824 133.113 113.863H126.492C126.621 111.836 127.957 110.371 129.867 110.371ZM141.902 121.211C143.66 121.211 145.055 120.344 145.84 118.938H145.875V121H147.82V104.09H145.781V110.793H145.734C145.008 109.457 143.602 108.602 141.855 108.602C138.785 108.602 136.688 111.086 136.688 114.906C136.688 118.727 138.797 121.211 141.902 121.211ZM142.289 110.395C144.387 110.395 145.793 112.188 145.793 114.906C145.793 117.637 144.387 119.418 142.289 119.418C140.133 119.418 138.773 117.672 138.773 114.906C138.773 112.152 140.133 110.395 142.289 110.395ZM156.152 105.871V108.812H154.336V110.488H156.152V117.836C156.152 120.18 157.02 121.094 159.258 121.094C159.738 121.094 160.301 121.059 160.547 121V119.289C160.406 119.312 159.938 119.348 159.703 119.348C158.66 119.348 158.191 118.844 158.191 117.73V110.488H160.559V108.812H158.191V105.871H156.152ZM167.438 121.211C170.801 121.211 173.074 118.785 173.074 114.906C173.074 111.016 170.801 108.602 167.438 108.602C164.062 108.602 161.789 111.016 161.789 114.906C161.789 118.785 164.062 121.211 167.438 121.211ZM167.438 119.418C165.281 119.418 163.863 117.777 163.863 114.906C163.863 112.035 165.281 110.395 167.438 110.395C169.594 110.395 171 112.035 171 114.906C171 117.777 169.594 119.418 167.438 119.418ZM186.117 121.211C189.234 121.211 191.297 118.738 191.297 114.906C191.297 111.086 189.223 108.602 186.152 108.602C184.43 108.602 183.012 109.457 182.25 110.852H182.203V104.09H180.164V121H182.109V118.938H182.156C182.941 120.344 184.336 121.211 186.117 121.211ZM185.719 110.395C187.875 110.395 189.211 112.141 189.211 114.906C189.211 117.695 187.875 119.418 185.719 119.418C183.656 119.418 182.191 117.625 182.191 114.906C182.191 112.199 183.656 110.395 185.719 110.395ZM201.457 117.508C201.117 118.656 199.98 119.441 198.434 119.441C196.242 119.441 194.871 117.906 194.871 115.574V115.457H203.613V114.684C203.613 110.992 201.586 108.602 198.293 108.602C194.93 108.602 192.773 111.168 192.773 114.953C192.773 118.785 194.895 121.211 198.387 121.211C201.047 121.211 203.109 119.641 203.461 117.508H201.457ZM198.258 110.371C200.18 110.371 201.457 111.824 201.504 113.863H194.883C195.012 111.836 196.348 110.371 198.258 110.371ZM215.215 121.211C216.973 121.211 218.367 120.344 219.152 118.938H219.188V121H221.133V104.09H219.094V110.793H219.047C218.32 109.457 216.914 108.602 215.168 108.602C212.098 108.602 210 111.086 210 114.906C210 118.727 212.109 121.211 215.215 121.211ZM215.602 110.395C217.699 110.395 219.105 112.188 219.105 114.906C219.105 117.637 217.699 119.418 215.602 119.418C213.445 119.418 212.086 117.672 212.086 114.906C212.086 112.152 213.445 110.395 215.602 110.395ZM228.938 121.211C232.301 121.211 234.574 118.785 234.574 114.906C234.574 111.016 232.301 108.602 228.938 108.602C225.562 108.602 223.289 111.016 223.289 114.906C223.289 118.785 225.562 121.211 228.938 121.211ZM228.938 119.418C226.781 119.418 225.363 117.777 225.363 114.906C225.363 112.035 226.781 110.395 228.938 110.395C231.094 110.395 232.5 112.035 232.5 114.906C232.5 117.777 231.094 119.418 228.938 119.418ZM236.637 121H238.676V113.828C238.676 111.766 239.93 110.406 241.852 110.406C243.727 110.406 244.652 111.484 244.652 113.453V121H246.691V113.09C246.691 110.324 245.145 108.602 242.473 108.602C240.586 108.602 239.285 109.445 238.605 110.758H238.559V108.812H236.637V121ZM257.379 117.508C257.039 118.656 255.902 119.441 254.355 119.441C252.164 119.441 250.793 117.906 250.793 115.574V115.457H259.535V114.684C259.535 110.992 257.508 108.602 254.215 108.602C250.852 108.602 248.695 111.168 248.695 114.953C248.695 118.785 250.816 121.211 254.309 121.211C256.969 121.211 259.031 119.641 259.383 117.508H257.379ZM254.18 110.371C256.102 110.371 257.379 111.824 257.426 113.863H250.805C250.934 111.836 252.27 110.371 254.18 110.371ZM260.93 108.508H262.934C263.062 106.832 264.188 105.789 265.957 105.789C267.703 105.789 268.828 106.855 268.828 108.309C268.828 109.562 268.301 110.301 266.941 111.133C265.336 112.094 264.586 113.148 264.598 114.695V115.773H266.648V115.012C266.648 113.781 267.07 113.125 268.559 112.246C270.059 111.344 271.008 110.043 271.008 108.203C271.008 105.789 268.992 103.961 266.039 103.961C262.746 103.961 261.059 105.988 260.93 108.508ZM265.629 121.117C266.391 121.117 266.965 120.531 266.965 119.781C266.965 119.02 266.391 118.445 265.629 118.445C264.879 118.445 264.293 119.02 264.293 119.781C264.293 120.531 264.879 121.117 265.629 121.117Z" fill="white"/>
<line x1="24" y1="134.5" x2="351" y2="134.5" stroke="#F2C94C"/>
<rect x="111" y="443" width="153" height="43" rx="21.5" fill="#F2C94C"/>
<path d="M170.039 458.727V470H174.016C177.375 470 179.352 467.906 179.352 464.344C179.352 460.789 177.367 458.727 174.016 458.727H170.039ZM171.789 460.234H173.852C176.234 460.234 177.562 461.703 177.562 464.359C177.562 467.023 176.242 468.484 173.852 468.484H171.789V460.234ZM184.352 470.156C186.703 470.156 188.25 468.539 188.25 465.891C188.25 463.25 186.695 461.633 184.352 461.633C182.008 461.633 180.453 463.25 180.453 465.891C180.453 468.539 182 470.156 184.352 470.156ZM184.352 468.766C183.031 468.766 182.172 467.719 182.172 465.891C182.172 464.07 183.031 463.023 184.352 463.023C185.672 463.023 186.531 464.07 186.531 465.891C186.531 467.719 185.68 468.766 184.352 468.766ZM189.555 470H191.242V465.211C191.242 463.938 192.008 463.094 193.195 463.094C194.367 463.094 194.945 463.773 194.945 465.008V470H196.641V464.68C196.641 462.797 195.602 461.641 193.789 461.641C192.523 461.641 191.648 462.219 191.203 463.156H191.164V461.781H189.555V470ZM203.719 467.586C203.492 468.305 202.781 468.789 201.82 468.789C200.469 468.789 199.609 467.844 199.609 466.414V466.312H205.414V465.734C205.414 463.242 203.992 461.633 201.711 461.633C199.391 461.633 197.906 463.352 197.906 465.93C197.906 468.523 199.367 470.156 201.781 470.156C203.664 470.156 205.086 469.086 205.32 467.586H203.719ZM201.711 462.992C202.891 462.992 203.688 463.875 203.727 465.133H199.617C199.703 463.891 200.531 462.992 201.711 462.992Z" fill="#333333"/>
</g>
<defs>
<filter id="filter0_ddd" x="-45" y="0" width="471" height="605" filterUnits="userSpaceOnUse" color-interpolation-filters="sRGB">
<feFlood flood-opacity="0" result="BackgroundImageFix"/>
<feColorMatrix in="SourceAlpha" type="matrix" values="0 0 0 0 0 0 0 0 0 0 0 0 0 0 0 0 0 0 127 0"/>
<feOffset dx="3" dy="6"/>
<feGaussianBlur stdDeviation="24"/>
<feColorMatrix type="matrix" values="0 0 0 0 0 0 0 0 0 0 0 0 0 0 0 0 0 0 0.3 0"/>
<feBlend mode="normal" in2="BackgroundImageFix" result="effect1_dropShadow"/>
<feColorMatrix in="SourceAlpha" type="matrix" values="0 0 0 0 0 0 0 0 0 0 0 0 0 0 0 0 0 0 127 0"/>
<feOffset dy="4"/>
<feGaussianBlur stdDeviation="2"/>
<feColorMatrix type="matrix" values="0 0 0 0 0 0 0 0 0 0 0 0 0 0 0 0 0 0 0.25 0"/>
<feBlend mode="normal" in2="effect1_dropShadow" result="effect2_dropShadow"/>
<feColorMatrix in="SourceAlpha" type="matrix" values="0 0 0 0 0 0 0 0 0 0 0 0 0 0 0 0 0 0 127 0"/>
<feOffset dy="4"/>
<feGaussianBlur stdDeviation="2"/>
<feColorMatrix type="matrix" values="0 0 0 0 0 0 0 0 0 0 0 0 0 0 0 0 0 0 0.25 0"/>
<feBlend mode="normal" in2="effect2_dropShadow" result="effect3_dropShadow"/>
<feBlend mode="normal" in="SourceGraphic" in2="effect3_dropShadow" result="shape"/>
</filter>
<filter id="filter1_i" x="24" y="239" width="250" height="19" filterUnits="userSpaceOnUse" color-interpolation-filters="sRGB">
<feFlood flood-opacity="0" result="BackgroundImageFix"/>
<feBlend mode="normal" in="SourceGraphic" in2="BackgroundImageFix" result="shape"/>
<feColorMatrix in="SourceAlpha" type="matrix" values="0 0 0 0 0 0 0 0 0 0 0 0 0 0 0 0 0 0 127 0" result="hardAlpha"/>
<feOffset dx="1" dy="3"/>
<feGaussianBlur stdDeviation="3"/>
<feComposite in2="hardAlpha" operator="arithmetic" k2="-1" k3="1"/>
<feColorMatrix type="matrix" values="0 0 0 0 0 0 0 0 0 0 0 0 0 0 0 0 0 0 0.12 0"/>
<feBlend mode="normal" in2="shape" result="effect1_innerShadow"/>
</filter>
<filter id="filter2_dd" x="66" y="220" width="56" height="56" filterUnits="userSpaceOnUse" color-interpolation-filters="sRGB">
<feFlood flood-opacity="0" result="BackgroundImageFix"/>
<feColorMatrix in="SourceAlpha" type="matrix" values="0 0 0 0 0 0 0 0 0 0 0 0 0 0 0 0 0 0 127 0"/>
<feOffset dy="1"/>
<feGaussianBlur stdDeviation="6"/>
<feColorMatrix type="matrix" values="0 0 0 0 0 0 0 0 0 0 0 0 0 0 0 0 0 0 0.13 0"/>
<feBlend mode="normal" in2="BackgroundImageFix" result="effect1_dropShadow"/>
<feColorMatrix in="SourceAlpha" type="matrix" values="0 0 0 0 0 0 0 0 0 0 0 0 0 0 0 0 0 0 127 0"/>
<feOffset dy="4"/>
<feGaussianBlur stdDeviation="2"/>
<feColorMatrix type="matrix" values="0 0 0 0 0 0 0 0 0 0 0 0 0 0 0 0 0 0 0.25 0"/>
<feBlend mode="normal" in2="effect1_dropShadow" result="effect2_dropShadow"/>
<feBlend mode="normal" in="SourceGraphic" in2="effect2_dropShadow" result="shape"/>
</filter>
<filter id="filter3_i" x="24" y="367" width="250" height="19" filterUnits="userSpaceOnUse" color-interpolation-filters="sRGB">
<feFlood flood-opacity="0" result="BackgroundImageFix"/>
<feBlend mode="normal" in="SourceGraphic" in2="BackgroundImageFix" result="shape"/>
<feColorMatrix in="SourceAlpha" type="matrix" values="0 0 0 0 0 0 0 0 0 0 0 0 0 0 0 0 0 0 127 0" result="hardAlpha"/>
<feOffset dx="1" dy="3"/>
<feGaussianBlur stdDeviation="3"/>
<feComposite in2="hardAlpha" operator="arithmetic" k2="-1" k3="1"/>
<feColorMatrix type="matrix" values="0 0 0 0 0 0 0 0 0 0 0 0 0 0 0 0 0 0 0.12 0"/>
<feBlend mode="normal" in2="shape" result="effect1_innerShadow"/>
</filter>
<filter id="filter4_dd" x="211" y="348" width="56" height="56" filterUnits="userSpaceOnUse" color-interpolation-filters="sRGB">
<feFlood flood-opacity="0" result="BackgroundImageFix"/>
<feColorMatrix in="SourceAlpha" type="matrix" values="0 0 0 0 0 0 0 0 0 0 0 0 0 0 0 0 0 0 127 0"/>
<feOffset dy="1"/>
<feGaussianBlur stdDeviation="6"/>
<feColorMatrix type="matrix" values="0 0 0 0 0 0 0 0 0 0 0 0 0 0 0 0 0 0 0.13 0"/>
<feBlend mode="normal" in2="BackgroundImageFix" result="effect1_dropShadow"/>
<feColorMatrix in="SourceAlpha" type="matrix" values="0 0 0 0 0 0 0 0 0 0 0 0 0 0 0 0 0 0 127 0"/>
<feOffset dy="4"/>
<feGaussianBlur stdDeviation="2"/>
<feColorMatrix type="matrix" values="0 0 0 0 0 0 0 0 0 0 0 0 0 0 0 0 0 0 0.25 0"/>
<feBlend mode="normal" in2="effect1_dropShadow" result="effect2_dropShadow"/>
<feBlend mode="normal" in="SourceGraphic" in2="effect2_dropShadow" result="shape"/>
</filter>
<linearGradient id="paint0_linear" x1="375" y1="41.9998" x2="-17.4425" y2="55.8235" gradientUnits="userSpaceOnUse">
<stop stop-color="#1B1B1B"/>
<stop offset="1" stop-color="#1D1D1D"/>
</linearGradient>
</defs>
</svg>
