<svg width="512" height="384" viewBox="0 0 512 384" fill="none" xmlns="http://www.w3.org/2000/svg">
<rect x="0.746356" y="0.746356" width="510.507" height="110.461" rx="11.1953" fill="url(#paint0_linear)"/>
<path d="M28.8047 40.7259H31.6269L34.7639 46.8834H38.7522L35.207 40.2011C37.1429 39.4431 38.2624 37.5772 38.2624 35.4198C38.2624 32.0962 36.0467 30.0554 32.175 30.0554H25.2828V46.8834H28.8047V40.7259ZM28.8047 32.8076H31.8018C33.5511 32.8076 34.6473 33.8571 34.6473 35.4898C34.6473 37.1574 33.6094 38.172 31.8368 38.172H28.8047V32.8076ZM48.4549 43.0583C48.14 44.0146 47.1837 44.6326 45.9359 44.6326C44.1983 44.6326 43.0671 43.4081 43.0671 41.6239V41.414H51.6852V40.3761C51.6852 36.5743 49.3878 34.1137 45.7493 34.1137C42.0525 34.1137 39.7202 36.7026 39.7202 40.6909C39.7202 44.6909 42.0292 47.1516 45.8776 47.1516C48.968 47.1516 51.207 45.5073 51.5802 43.0583H48.4549ZM45.7843 36.6326C47.3003 36.6326 48.3382 37.7288 48.4082 39.3265H43.1021C43.2187 37.7638 44.2916 36.6326 45.7843 36.6326ZM54.3557 31.5014V34.3819H52.5948V36.9475H54.3557V43.5131C54.3557 45.9504 55.4986 46.93 58.4374 46.93C59.1254 46.93 59.7085 46.8717 60.0584 46.7901V44.2828C59.8484 44.3178 59.5336 44.3411 59.2304 44.3411C58.2274 44.3411 57.761 43.8863 57.761 42.93V36.9475H60.07V34.3819H57.761V31.5014H54.3557ZM73.4811 34.3819H70.0758V41.5423C70.0758 43.1982 69.1312 44.2828 67.6152 44.2828C66.1108 44.2828 65.2828 43.3965 65.2828 41.7288V34.3819H61.8776V42.4402C61.8776 45.3557 63.6735 47.1166 66.3791 47.1166C68.2683 47.1166 69.5044 46.207 70.1225 44.6326H70.1925V46.8834H73.4811V34.3819ZM75.6968 46.8834H79.1021V39.8979C79.1021 38.137 80.0817 37.1108 81.761 37.1108C82.2508 37.1108 82.7172 37.1924 82.9971 37.309V34.3119C82.7639 34.242 82.4257 34.1837 82.0292 34.1837C80.5598 34.1837 79.4986 35.0466 79.0554 36.6326H78.9855V34.3819H75.6968V46.8834ZM84.3965 46.8834H87.8018V39.7113C87.8018 38.0904 88.7697 36.9708 90.2974 36.9708C91.8251 36.9708 92.5948 37.9038 92.5948 39.5364V46.8834H96V38.8251C96 35.8979 94.4374 34.1487 91.6619 34.1487C89.7377 34.1487 88.4199 35.0583 87.7551 36.6093H87.6852V34.3819H84.3965V46.8834ZM111.172 43.0583C110.857 44.0146 109.901 44.6326 108.653 44.6326C106.915 44.6326 105.784 43.4081 105.784 41.6239V41.414H114.402V40.3761C114.402 36.5743 112.105 34.1137 108.467 34.1137C104.77 34.1137 102.437 36.7026 102.437 40.6909C102.437 44.6909 104.746 47.1516 108.595 47.1516C111.685 47.1516 113.924 45.5073 114.297 43.0583H111.172ZM108.502 36.6326C110.018 36.6326 111.055 37.7288 111.125 39.3265H105.819C105.936 37.7638 107.009 36.6326 108.502 36.6326ZM116.163 46.8834H119.569V39.3382C119.569 37.9388 120.443 36.9592 121.738 36.9592C122.997 36.9592 123.755 37.7522 123.755 39.0933V46.8834H127.032V39.2915C127.032 37.9038 127.883 36.9592 129.178 36.9592C130.496 36.9592 131.219 37.7522 131.219 39.1982V46.8834H134.624V38.3469C134.624 35.828 132.98 34.1487 130.531 34.1487C128.7 34.1487 127.207 35.1399 126.647 36.7143H126.577C126.157 35.0816 124.898 34.1487 123.09 34.1487C121.388 34.1487 120.047 35.1399 119.522 36.6443H119.452V34.3819H116.163V46.8834ZM140.49 47.0816C142.053 47.0816 143.604 46.3003 144.303 44.9708H144.373V46.8834H147.662V38.2886C147.662 35.7697 145.574 34.1137 142.367 34.1137C139.055 34.1137 136.991 35.7813 136.863 38.207H139.977C140.14 37.2857 140.945 36.656 142.216 36.656C143.499 36.656 144.315 37.3323 144.315 38.4985V39.3265L141.166 39.5131C138.053 39.6997 136.303 41.0175 136.303 43.2915C136.303 45.5423 138.111 47.0816 140.49 47.0816ZM141.609 44.621C140.455 44.621 139.685 44.0379 139.685 43.1049C139.685 42.2186 140.408 41.6472 141.679 41.5539L144.315 41.3907V42.3003C144.315 43.653 143.09 44.621 141.609 44.621ZM151.615 32.6909C152.606 32.6909 153.388 31.8979 153.388 30.9417C153.388 29.9737 152.606 29.1924 151.615 29.1924C150.624 29.1924 149.843 29.9737 149.843 30.9417C149.843 31.8979 150.624 32.6909 151.615 32.6909ZM149.924 46.8834H153.329V34.3819H149.924V46.8834ZM155.685 46.8834H159.09V30.0554H155.685V46.8834ZM167.032 31.5014V34.3819H165.271V36.9475H167.032V43.5131C167.032 45.9504 168.175 46.93 171.114 46.93C171.802 46.93 172.385 46.8717 172.735 46.7901V44.2828C172.525 44.3178 172.21 44.3411 171.907 44.3411C170.904 44.3411 170.437 43.8863 170.437 42.93V36.9475H172.746V34.3819H170.437V31.5014H167.032ZM180.163 47.1516C183.942 47.1516 186.356 44.7376 186.356 40.621C186.356 36.5627 183.907 34.1137 180.163 34.1137C176.42 34.1137 173.971 36.5743 173.971 40.621C173.971 44.7259 176.385 47.1516 180.163 47.1516ZM180.163 44.551C178.484 44.551 177.423 43.1399 177.423 40.6326C177.423 38.1487 178.507 36.7143 180.163 36.7143C181.819 36.7143 182.892 38.1487 182.892 40.6326C182.892 43.1399 181.831 44.551 180.163 44.551ZM193.143 30.0554V46.8834H199.569C204.618 46.8834 207.592 43.7463 207.592 38.4052C207.592 33.0641 204.618 30.0554 199.569 30.0554H193.143ZM196.665 32.9592H199.149C202.251 32.9592 204 34.895 204 38.4169C204 42.0554 202.297 43.9679 199.149 43.9679H196.665V32.9592ZM215.312 47.1516C219.09 47.1516 221.504 44.7376 221.504 40.621C221.504 36.5627 219.055 34.1137 215.312 34.1137C211.569 34.1137 209.12 36.5743 209.12 40.621C209.12 44.7259 211.534 47.1516 215.312 47.1516ZM215.312 44.551C213.633 44.551 212.571 43.1399 212.571 40.6326C212.571 38.1487 213.656 36.7143 215.312 36.7143C216.968 36.7143 218.041 38.1487 218.041 40.6326C218.041 43.1399 216.98 44.551 215.312 44.551ZM223.265 46.8834H226.671V39.8979C226.671 38.137 227.65 37.1108 229.329 37.1108C229.819 37.1108 230.286 37.1924 230.566 37.309V34.3119C230.332 34.242 229.994 34.1837 229.598 34.1837C228.128 34.1837 227.067 35.0466 226.624 36.6326H226.554V34.3819H223.265V46.8834Z" fill="#F0F0F0"/>
<g clip-path="url(#clip0)">
<g clip-path="url(#clip1)">
<circle cx="29.8543" cy="77.621" r="5.97085" fill="#EB5757"/>
<path d="M53.758 84.172V72.9679H57.7376V71.551H48.204V72.9679H52.1836V84.172H53.758ZM60.5714 84.3294C63.0816 84.3294 64.7784 82.5189 64.7784 79.6239C64.7784 76.7201 63.0816 74.9184 60.5714 74.9184C58.0524 74.9184 56.3556 76.7201 56.3556 79.6239C56.3556 82.5189 58.0524 84.3294 60.5714 84.3294ZM60.5714 82.9912C58.9621 82.9912 57.9037 81.7667 57.9037 79.6239C57.9037 77.481 58.9621 76.2565 60.5714 76.2565C62.1807 76.2565 63.2303 77.481 63.2303 79.6239C63.2303 81.7667 62.1807 82.9912 60.5714 82.9912ZM69.7638 84.3294C71.0758 84.3294 72.1166 83.6822 72.7026 82.6326H72.7288V84.172H74.1807V71.551H72.6589V76.5539H72.6239C72.0816 75.5568 71.032 74.9184 69.7288 74.9184C67.4373 74.9184 65.8717 76.7726 65.8717 79.6239C65.8717 82.4752 67.446 84.3294 69.7638 84.3294ZM70.0524 76.2565C71.618 76.2565 72.6676 77.5947 72.6676 79.6239C72.6676 81.6618 71.618 82.9912 70.0524 82.9912C68.4431 82.9912 67.4285 81.688 67.4285 79.6239C67.4285 77.5685 68.4431 76.2565 70.0524 76.2565ZM78.895 84.3294C80.1195 84.3294 81.274 83.6472 81.8163 82.6064H81.8513V84.172H83.2944V77.8834C83.2944 76.0729 81.9475 74.9184 79.8134 74.9184C77.6618 74.9184 76.3148 76.1253 76.2099 77.6997H77.6793C77.8717 76.8076 78.6064 76.2565 79.7784 76.2565C81.0379 76.2565 81.7726 76.9213 81.7726 78.0321V78.793L79.1661 78.9417C77.067 79.0641 75.8688 80.0437 75.8688 81.6006C75.8688 83.2361 77.0845 84.3294 78.895 84.3294ZM79.2361 83.035C78.1428 83.035 77.4169 82.4665 77.4169 81.6006C77.4169 80.7434 78.1166 80.2012 79.3411 80.1224L81.7726 79.9737V80.7172C81.7726 82.0291 80.6705 83.035 79.2361 83.035ZM85.9883 87.5743C87.6326 87.5743 88.3848 86.9358 89.1632 84.8105L92.7405 75.0758H91.1399L88.621 82.6501H88.5947L86.0758 75.0758H84.4489L87.8075 84.1807L87.5976 84.8192C87.2478 85.8775 86.7755 86.2886 85.9271 86.2886C85.7347 86.2886 85.4985 86.2799 85.3323 86.2449V87.5219C85.4985 87.5568 85.8046 87.5743 85.9883 87.5743Z" fill="white" fill-opacity="0.7"/>
</g>
<g clip-path="url(#clip2)">
<circle cx="123.895" cy="77.621" r="5.97085" fill="#EB5757"/>
<path d="M144.606 71.551H143.032V79.7463C143.032 82.4402 144.913 84.3819 148.044 84.3819C151.175 84.3819 153.055 82.4402 153.055 79.7463V71.551H151.481V79.6414C151.481 81.5481 150.23 82.93 148.044 82.93C145.857 82.93 144.606 81.5481 144.606 79.6414V71.551ZM155.268 84.172H156.79V78.5044C156.79 77.2186 157.56 76.3702 158.741 76.3702C159.108 76.3702 159.432 76.414 159.554 76.4577V74.9796C159.432 74.9621 159.204 74.9184 158.942 74.9184C157.875 74.9184 157.035 75.5568 156.738 76.5627H156.703V75.0758H155.268V84.172ZM164.111 87.6006C166.621 87.6006 168.222 86.1574 168.222 83.9883V75.0758H166.77V76.6064H166.743C166.14 75.5481 165.073 74.9184 163.787 74.9184C161.434 74.9184 159.913 76.7376 159.913 79.5889C159.913 82.414 161.434 84.242 163.752 84.242C165.029 84.242 166.105 83.5947 166.665 82.6064H166.7V84.0408C166.7 85.3965 165.746 86.3061 164.172 86.3061C163.035 86.3061 162.134 85.7551 161.837 84.9242H160.271C160.525 86.4723 162.108 87.6006 164.111 87.6006ZM164.058 82.9038C162.493 82.9038 161.469 81.6268 161.469 79.5889C161.469 77.551 162.493 76.2565 164.058 76.2565C165.641 76.2565 166.7 77.586 166.7 79.5889C166.7 81.5918 165.641 82.9038 164.058 82.9038ZM176.242 81.5656C175.988 82.4227 175.14 83.0087 173.985 83.0087C172.35 83.0087 171.327 81.863 171.327 80.1224V80.035H177.851V79.4577C177.851 76.7026 176.338 74.9184 173.881 74.9184C171.37 74.9184 169.761 76.8338 169.761 79.6589C169.761 82.5189 171.344 84.3294 173.95 84.3294C175.936 84.3294 177.475 83.1574 177.738 81.5656H176.242ZM173.854 76.2391C175.289 76.2391 176.242 77.3236 176.277 78.8455H171.335C171.432 77.3323 172.429 76.2391 173.854 76.2391ZM179.391 84.172H180.913V78.8192C180.913 77.2799 181.848 76.2653 183.283 76.2653C184.682 76.2653 185.373 77.07 185.373 78.5393V84.172H186.895V78.2682C186.895 76.2041 185.741 74.9184 183.746 74.9184C182.338 74.9184 181.367 75.5481 180.86 76.5277H180.825V75.0758H179.391V84.172ZM189.327 72.8805V75.0758H187.971V76.3265H189.327V81.8105C189.327 83.5598 189.974 84.242 191.644 84.242C192.003 84.242 192.423 84.2157 192.606 84.172V82.895C192.501 82.9125 192.152 82.9388 191.977 82.9388C191.198 82.9388 190.848 82.5627 190.848 81.7318V76.3265H192.615V75.0758H190.848V72.8805H189.327Z" fill="white" fill-opacity="0.7"/>
</g>
</g>
<path d="M455.685 65.0408C459.02 65.0408 461.469 62.6734 461.469 59.4315C461.469 56.2361 459.09 53.8571 455.918 53.8571C454.088 53.8571 452.397 54.6851 451.475 56.0495H451.452L452.257 48.8076H460.385V47.9679H451.464L450.484 57.1924H451.382C452.303 55.5947 453.936 54.6734 455.813 54.6734C458.507 54.6734 460.548 56.7376 460.548 59.4431C460.548 62.1837 458.484 64.2128 455.697 64.2128C453.318 64.2128 451.37 62.7084 451.114 60.6793H450.192C450.449 63.1982 452.781 65.0408 455.685 65.0408ZM469.598 65.0408C472.851 65.0408 475.265 62.5918 475.265 59.3265C475.265 56.1778 472.863 53.7872 469.679 53.7872C467.125 53.7872 464.98 55.3965 464.42 57.6006H464.373C464.28 51.9213 466.262 48.551 469.668 48.551C471.848 48.551 473.586 49.8921 473.959 51.8513H474.892C474.496 49.379 472.397 47.723 469.679 47.723C465.854 47.723 463.464 51.2216 463.464 56.8192C463.464 63.4315 466.962 65.0408 469.598 65.0408ZM469.586 64.2011C466.857 64.2011 464.746 61.9971 464.746 59.1749C464.746 56.6909 466.951 54.6151 469.586 54.6151C472.28 54.6151 474.332 56.6676 474.332 59.3498C474.332 62.0904 472.268 64.2011 469.586 64.2011Z" fill="white"/>
<rect x="0.746356" y="0.746356" width="510.507" height="110.461" rx="11.1953" stroke="#393939" stroke-width="1.49271"/>
<rect x="0.746356" y="136.583" width="510.507" height="110.461" rx="11.1953" fill="url(#paint1_linear)"/>
<path d="M32.7347 182.72C36.3266 182.72 38.554 180.866 38.554 177.904C38.554 175.676 36.8747 174.009 34.589 173.834V173.741C36.3732 173.472 37.7493 171.933 37.7493 170.09C37.7493 167.513 35.7668 165.892 32.6065 165.892H25.2828V182.72H32.7347ZM28.8047 168.516H31.6968C33.3411 168.516 34.2858 169.286 34.2858 170.638C34.2858 172.061 33.2129 172.889 31.3353 172.889H28.8047V168.516ZM28.8047 180.096V175.21H31.7551C33.8309 175.21 34.9621 176.05 34.9621 177.624C34.9621 179.233 33.8659 180.096 31.8368 180.096H28.8047ZM51.8135 170.219H48.4082V177.379C48.4082 179.035 47.4636 180.12 45.9476 180.12C44.4432 180.12 43.6152 179.233 43.6152 177.566V170.219H40.21V178.277C40.21 181.192 42.0059 182.953 44.7114 182.953C46.6006 182.953 47.8368 182.044 48.4549 180.469H48.5248V182.72H51.8135V170.219ZM55.6385 187.35C58.8222 187.35 60.3965 186.195 61.4578 182.988L65.761 170.219H62.1691L59.5219 179.991H59.4519L56.793 170.219H53.0613L57.4111 182.72C57.4228 182.778 57.2945 183.268 57.2945 183.327C57.0613 184.318 56.4432 184.714 55.207 184.714C55.0788 184.714 54.4607 184.703 54.3441 184.679V187.315C54.4607 187.338 55.5102 187.35 55.6385 187.35ZM71.7551 182.72H75.1604V175.548C75.1604 173.927 76.1283 172.808 77.656 172.808C79.1837 172.808 79.9534 173.741 79.9534 175.373V182.72H83.3586V174.662C83.3586 171.735 81.796 169.985 79.0205 169.985C77.0963 169.985 75.7785 170.895 75.1137 172.446H75.0438V170.219H71.7551V182.72ZM93.796 178.895C93.4811 179.851 92.5248 180.469 91.277 180.469C89.5394 180.469 88.4082 179.245 88.4082 177.461V177.251H97.0263V176.213C97.0263 172.411 94.7289 169.95 91.0904 169.95C87.3936 169.95 85.0613 172.539 85.0613 176.528C85.0613 180.528 87.3703 182.988 91.2187 182.988C94.3091 182.988 96.5481 181.344 96.9213 178.895H93.796ZM91.1254 172.469C92.6414 172.469 93.6793 173.566 93.7493 175.163H88.4432C88.5598 173.601 89.6327 172.469 91.1254 172.469ZM116.257 170.219H112.898L110.997 179.49H110.927L108.7 170.219H105.434L103.219 179.49H103.149L101.26 170.219H97.8309L101.155 182.72H104.735L106.985 173.88H107.055L109.318 182.72H112.945L116.257 170.219ZM122.402 182.72H125.808V175.583C125.808 173.939 126.752 172.808 128.362 172.808C129.913 172.808 130.706 173.787 130.706 175.396V182.72H134.111V174.673C134.111 171.781 132.525 169.985 129.749 169.985C127.848 169.985 126.484 170.872 125.819 172.446H125.749V165.892H122.402V182.72ZM144.571 178.895C144.257 179.851 143.3 180.469 142.053 180.469C140.315 180.469 139.184 179.245 139.184 177.461V177.251H147.802V176.213C147.802 172.411 145.504 169.95 141.866 169.95C138.169 169.95 135.837 172.539 135.837 176.528C135.837 180.528 138.146 182.988 141.994 182.988C145.085 182.988 147.324 181.344 147.697 178.895H144.571ZM141.901 172.469C143.417 172.469 144.455 173.566 144.525 175.163H139.219C139.335 173.601 140.408 172.469 141.901 172.469ZM153.271 182.918C154.834 182.918 156.385 182.137 157.085 180.808H157.155V182.72H160.443V174.125C160.443 171.606 158.356 169.95 155.149 169.95C151.837 169.95 149.773 171.618 149.644 174.044H152.758C152.921 173.122 153.726 172.493 154.997 172.493C156.28 172.493 157.096 173.169 157.096 174.335V175.163L153.948 175.35C150.834 175.536 149.085 176.854 149.085 179.128C149.085 181.379 150.892 182.918 153.271 182.918ZM154.391 180.458C153.236 180.458 152.467 179.875 152.467 178.942C152.467 178.055 153.19 177.484 154.461 177.391L157.096 177.227V178.137C157.096 179.49 155.872 180.458 154.391 180.458ZM167.289 182.918C169.131 182.918 170.577 181.95 171.184 180.574H171.242V182.72H174.601V165.892H171.195V172.364H171.125C170.519 170.977 169.12 170.02 167.312 170.02C164.175 170.02 162.192 172.481 162.192 176.446C162.192 180.446 164.163 182.918 167.289 182.918ZM168.443 172.749C170.134 172.749 171.219 174.195 171.219 176.469C171.219 178.755 170.134 180.178 168.443 180.178C166.729 180.178 165.679 178.767 165.679 176.469C165.679 174.184 166.729 172.749 168.443 172.749ZM176.665 173.892C176.665 175.77 177.889 176.982 180.303 177.496L182.437 177.939C183.662 178.219 184.093 178.592 184.093 179.257C184.093 180.073 183.3 180.598 182.018 180.598C180.665 180.598 179.883 180.015 179.674 178.918H176.35C176.571 181.379 178.566 182.988 182.018 182.988C185.236 182.988 187.487 181.367 187.487 178.907C187.487 177.076 186.414 176.05 183.802 175.501L181.668 175.047C180.408 174.778 179.942 174.347 179.942 173.706C179.942 172.878 180.723 172.341 181.901 172.341C183.16 172.341 183.918 173.029 184.023 174.044H187.16C187.09 171.595 185.108 169.95 181.901 169.95C178.717 169.95 176.665 171.513 176.665 173.892ZM197.446 178.895C197.131 179.851 196.175 180.469 194.927 180.469C193.19 180.469 192.058 179.245 192.058 177.461V177.251H200.676V176.213C200.676 172.411 198.379 169.95 194.741 169.95C191.044 169.95 188.711 172.539 188.711 176.528C188.711 180.528 191.02 182.988 194.869 182.988C197.959 182.988 200.198 181.344 200.571 178.895H197.446ZM194.776 172.469C196.292 172.469 197.329 173.566 197.399 175.163H192.093C192.21 173.601 193.283 172.469 194.776 172.469ZM203.347 167.338V170.219H201.586V172.784H203.347V179.35C203.347 181.787 204.49 182.767 207.429 182.767C208.117 182.767 208.7 182.708 209.05 182.627V180.12C208.84 180.154 208.525 180.178 208.222 180.178C207.219 180.178 206.752 179.723 206.752 178.767V172.784H209.061V170.219H206.752V167.338H203.347Z" fill="#F0F0F0"/>
<g clip-path="url(#clip3)">
<g clip-path="url(#clip4)">
<circle cx="29.8543" cy="213.458" r="5.97085" fill="#F2C94C"/>
<path d="M50.5656 220.009V207.388H48.9912V220.009H50.5656ZM52.7784 220.009H54.3003V214.656C54.3003 213.117 55.2361 212.102 56.6705 212.102C58.0699 212.102 58.7609 212.907 58.7609 214.376V220.009H60.2828V214.105C60.2828 212.041 59.1282 210.755 57.1341 210.755C55.7259 210.755 54.7551 211.385 54.2478 212.364H54.2128V210.913H52.7784V220.009ZM68.5568 220.166C69.7813 220.166 70.9358 219.484 71.4781 218.443H71.5131V220.009H72.9562V213.72C72.9562 211.91 71.6093 210.755 69.4752 210.755C67.3236 210.755 65.9766 211.962 65.8717 213.536H67.3411C67.5335 212.644 68.2682 212.093 69.4402 212.093C70.6997 212.093 71.4344 212.758 71.4344 213.869V214.63L68.8279 214.778C66.7288 214.901 65.5306 215.88 65.5306 217.437C65.5306 219.073 66.7463 220.166 68.5568 220.166ZM68.8979 218.872C67.8046 218.872 67.0787 218.303 67.0787 217.437C67.0787 216.58 67.7784 216.038 69.0029 215.959L71.4344 215.81V216.554C71.4344 217.866 70.3323 218.872 68.8979 218.872ZM90.1341 210.913H88.6297L86.8105 218.312H86.7755L84.7113 210.913H83.2419L81.1865 218.312H81.1516L79.3323 210.913H77.8192L80.3644 220.009H81.9125L83.9591 212.968H83.9941L86.0495 220.009H87.5976L90.1341 210.913ZM97.4198 217.402C97.1661 218.259 96.3177 218.845 95.1632 218.845C93.5277 218.845 92.5043 217.7 92.5043 215.959V215.872H99.0291V215.294C99.0291 212.539 97.516 210.755 95.0583 210.755C92.5481 210.755 90.9387 212.671 90.9387 215.496C90.9387 218.356 92.5218 220.166 95.1282 220.166C97.1137 220.166 98.653 218.994 98.9154 217.402H97.4198ZM95.032 212.076C96.4664 212.076 97.4198 213.16 97.4548 214.682H92.5131C92.6093 213.169 93.6064 212.076 95.032 212.076ZM106.603 217.402C106.35 218.259 105.501 218.845 104.347 218.845C102.711 218.845 101.688 217.7 101.688 215.959V215.872H108.213V215.294C108.213 212.539 106.7 210.755 104.242 210.755C101.732 210.755 100.122 212.671 100.122 215.496C100.122 218.356 101.705 220.166 104.312 220.166C106.297 220.166 107.837 218.994 108.099 217.402H106.603ZM104.216 212.076C105.65 212.076 106.603 213.16 106.638 214.682H101.697C101.793 213.169 102.79 212.076 104.216 212.076ZM111.353 216.58L112.201 215.775L115.577 220.009H117.344L113.277 214.84L117.222 210.913H115.376L111.353 214.953V207.388H109.831V220.009H111.353V216.58Z" fill="white" fill-opacity="0.7"/>
</g>
<g clip-path="url(#clip5)">
<circle cx="147.778" cy="213.458" r="5.97085" fill="#6FCF97"/>
<path d="M168.472 220.009V210.134H168.551L175.461 220.009H176.991V207.388H175.434V217.297H175.356L168.446 207.388H166.915V220.009H168.472ZM180.044 209.294C180.577 209.294 180.997 208.866 180.997 208.341C180.997 207.808 180.577 207.388 180.044 207.388C179.519 207.388 179.09 207.808 179.09 208.341C179.09 208.866 179.519 209.294 180.044 209.294ZM179.283 220.009H180.805V210.913H179.283V220.009ZM190.417 213.895C190.224 212.259 188.869 210.755 186.595 210.755C184.085 210.755 182.414 212.592 182.414 215.461C182.414 218.391 184.093 220.166 186.612 220.166C188.676 220.166 190.198 218.889 190.434 217.079H188.939C188.676 218.172 187.863 218.828 186.621 218.828C185.047 218.828 183.962 217.577 183.962 215.461C183.962 213.396 185.029 212.093 186.603 212.093C187.942 212.093 188.711 212.907 188.93 213.895H190.417ZM197.869 217.402C197.615 218.259 196.767 218.845 195.612 218.845C193.977 218.845 192.953 217.7 192.953 215.959V215.872H199.478V215.294C199.478 212.539 197.965 210.755 195.507 210.755C192.997 210.755 191.388 212.671 191.388 215.496C191.388 218.356 192.971 220.166 195.577 220.166C197.563 220.166 199.102 218.994 199.364 217.402H197.869ZM195.481 212.076C196.915 212.076 197.869 213.16 197.904 214.682H192.962C193.058 213.169 194.055 212.076 195.481 212.076ZM205.181 208.717V210.913H203.825V212.163H205.181V217.647C205.181 219.396 205.828 220.079 207.498 220.079C207.857 220.079 208.277 220.052 208.461 220.009V218.732C208.356 218.749 208.006 218.775 207.831 218.775C207.052 218.775 206.703 218.399 206.703 217.568V212.163H208.469V210.913H206.703V208.717H205.181ZM213.603 220.166C216.114 220.166 217.81 218.356 217.81 215.461C217.81 212.557 216.114 210.755 213.603 210.755C211.085 210.755 209.388 212.557 209.388 215.461C209.388 218.356 211.085 220.166 213.603 220.166ZM213.603 218.828C211.994 218.828 210.936 217.603 210.936 215.461C210.936 213.318 211.994 212.093 213.603 212.093C215.213 212.093 216.262 213.318 216.262 215.461C216.262 217.603 215.213 218.828 213.603 218.828ZM223.102 220.009H224.624V214.708C224.624 213.134 225.56 212.102 227.073 212.102C228.498 212.102 229.224 212.968 229.224 214.411V220.009H230.746V214.131C230.746 212.102 229.539 210.755 227.545 210.755C226.163 210.755 225.166 211.35 224.659 212.364H224.624V207.388H223.102V220.009ZM235.338 220.166C236.563 220.166 237.717 219.484 238.259 218.443H238.294V220.009H239.738V213.72C239.738 211.91 238.391 210.755 236.257 210.755C234.105 210.755 232.758 211.962 232.653 213.536H234.122C234.315 212.644 235.05 212.093 236.222 212.093C237.481 212.093 238.216 212.758 238.216 213.869V214.63L235.609 214.778C233.51 214.901 232.312 215.88 232.312 217.437C232.312 219.073 233.528 220.166 235.338 220.166ZM235.679 218.872C234.586 218.872 233.86 218.303 233.86 217.437C233.86 216.58 234.56 216.038 235.784 215.959L238.216 215.81V216.554C238.216 217.866 237.114 218.872 235.679 218.872ZM249.131 210.913H247.548L245.029 218.391H244.994L242.484 210.913H240.883L244.233 220.009H245.79L249.131 210.913ZM256.102 217.402C255.848 218.259 255 218.845 253.845 218.845C252.21 218.845 251.187 217.7 251.187 215.959V215.872H257.711V215.294C257.711 212.539 256.198 210.755 253.74 210.755C251.23 210.755 249.621 212.671 249.621 215.496C249.621 218.356 251.204 220.166 253.81 220.166C255.796 220.166 257.335 218.994 257.598 217.402H256.102ZM253.714 212.076C255.149 212.076 256.102 213.16 256.137 214.682H251.195C251.292 213.169 252.289 212.076 253.714 212.076Z" fill="white" fill-opacity="0.7"/>
</g>
</g>
<path d="M459.557 200.633H460.467V196.423H463.137V195.583H460.467V183.746L459.137 183.758C455.755 188.318 453.248 191.921 450.892 195.571V196.423H459.557V200.633ZM451.907 195.56C454.029 192.294 456.56 188.644 459.534 184.679H459.557V195.583H451.907V195.56ZM466.204 200.633H467.207L475.195 184.691V183.805H464.467V184.644H474.251V184.679L466.204 200.633Z" fill="white"/>
<rect x="0.746356" y="136.583" width="510.507" height="110.461" rx="11.1953" stroke="#393939" stroke-width="1.49271"/>
<rect x="0.746356" y="272.42" width="510.507" height="110.461" rx="11.1953" fill="url(#paint2_linear)"/>
<path d="M24.6414 313.752C24.7464 316.924 27.417 318.837 31.4286 318.837C35.6385 318.837 38.2158 316.761 38.2158 313.472C38.2158 310.918 36.6648 309.484 33.1079 308.773L31.3237 308.411C29.3411 308.015 28.5248 307.373 28.5248 306.335C28.5248 305.099 29.691 304.283 31.4286 304.283C33.2012 304.283 34.449 305.146 34.5656 306.58H37.8893C37.8309 303.49 35.3586 301.437 31.4286 301.437C27.6852 301.437 25.003 303.478 25.003 306.557C25.003 309.064 26.6473 310.673 30.0059 311.338L31.7785 311.688C33.8893 312.12 34.6823 312.749 34.6823 313.857C34.6823 315.093 33.3995 316.003 31.5219 316.003C29.6094 316.003 28.1866 315.163 27.9651 313.752H24.6414ZM51.4403 310.708C51.2887 307.875 49.1429 305.787 45.761 305.787C42.0175 305.787 39.6269 308.283 39.6269 312.294C39.6269 316.376 42.0175 318.825 45.7843 318.825C49.0729 318.825 51.277 316.924 51.4519 313.974H48.2799C48.07 315.338 47.1837 316.154 45.8193 316.154C44.1283 316.154 43.0788 314.755 43.0788 312.294C43.0788 309.88 44.1283 308.458 45.8076 308.458C47.207 308.458 48.0817 309.391 48.2799 310.708H51.4403ZM53.1779 318.557H56.5831V311.42C56.5831 309.775 57.5277 308.644 59.1371 308.644C60.6881 308.644 61.4811 309.624 61.4811 311.233V318.557H64.8863V310.51C64.8863 307.618 63.3003 305.822 60.5248 305.822C58.6239 305.822 57.2595 306.708 56.5948 308.283H56.5248V301.729H53.1779V318.557ZM75.347 314.732C75.0321 315.688 74.0758 316.306 72.828 316.306C71.0904 316.306 69.9592 315.082 69.9592 313.297V313.087H78.5773V312.05C78.5773 308.248 76.2799 305.787 72.6414 305.787C68.9447 305.787 66.6123 308.376 66.6123 312.364C66.6123 316.364 68.9213 318.825 72.7697 318.825C75.8601 318.825 78.0992 317.181 78.4723 314.732H75.347ZM72.6764 308.306C74.1925 308.306 75.2304 309.402 75.3003 311H69.9942C70.1108 309.437 71.1837 308.306 72.6764 308.306ZM84.9796 318.755C86.8222 318.755 88.2683 317.787 88.8747 316.411H88.933V318.557H92.2916V301.729H88.8863V308.201H88.8164C88.21 306.813 86.8105 305.857 85.003 305.857C81.8659 305.857 79.8834 308.318 79.8834 312.283C79.8834 316.283 81.8543 318.755 84.9796 318.755ZM86.1342 308.586C87.8251 308.586 88.9097 310.032 88.9097 312.306C88.9097 314.592 87.8251 316.015 86.1342 316.015C84.4199 316.015 83.3703 314.603 83.3703 312.306C83.3703 310.02 84.4199 308.586 86.1342 308.586ZM106.111 306.055H102.706V313.216C102.706 314.872 101.761 315.956 100.245 315.956C98.7406 315.956 97.9126 315.07 97.9126 313.402V306.055H94.5073V314.114C94.5073 317.029 96.3033 318.79 99.0088 318.79C100.898 318.79 102.134 317.88 102.752 316.306H102.822V318.557H106.111V306.055ZM108.408 318.557H111.813V301.729H108.408V318.557ZM122.391 314.732C122.076 315.688 121.12 316.306 119.872 316.306C118.134 316.306 117.003 315.082 117.003 313.297V313.087H125.621V312.05C125.621 308.248 123.324 305.787 119.685 305.787C115.988 305.787 113.656 308.376 113.656 312.364C113.656 316.364 115.965 318.825 119.813 318.825C122.904 318.825 125.143 317.181 125.516 314.732H122.391ZM119.72 308.306C121.236 308.306 122.274 309.402 122.344 311H117.038C117.155 309.437 118.227 308.306 119.72 308.306ZM135.825 318.755C137.388 318.755 138.939 317.974 139.639 316.644H139.708V318.557H142.997V309.962C142.997 307.443 140.91 305.787 137.703 305.787C134.391 305.787 132.327 307.455 132.198 309.88H135.312C135.475 308.959 136.28 308.329 137.551 308.329C138.834 308.329 139.65 309.006 139.65 310.172V311L136.502 311.187C133.388 311.373 131.639 312.691 131.639 314.965C131.639 317.216 133.446 318.755 135.825 318.755ZM136.945 316.294C135.79 316.294 135.02 315.711 135.02 314.778C135.02 313.892 135.743 313.321 137.015 313.227L139.65 313.064V313.974C139.65 315.327 138.426 316.294 136.945 316.294ZM154.577 318.755C156.42 318.755 157.866 317.787 158.472 316.411H158.531V318.557H161.889V301.729H158.484V308.201H158.414C157.808 306.813 156.408 305.857 154.601 305.857C151.464 305.857 149.481 308.318 149.481 312.283C149.481 316.283 151.452 318.755 154.577 318.755ZM155.732 308.586C157.423 308.586 158.507 310.032 158.507 312.306C158.507 314.592 157.423 316.015 155.732 316.015C154.018 316.015 152.968 314.603 152.968 312.306C152.968 310.02 154.018 308.586 155.732 308.586ZM172.443 314.732C172.128 315.688 171.172 316.306 169.924 316.306C168.187 316.306 167.055 315.082 167.055 313.297V313.087H175.674V312.05C175.674 308.248 173.376 305.787 169.738 305.787C166.041 305.787 163.708 308.376 163.708 312.364C163.708 316.364 166.018 318.825 169.866 318.825C172.956 318.825 175.195 317.181 175.569 314.732H172.443ZM169.773 308.306C171.289 308.306 172.327 309.402 172.397 311H167.09C167.207 309.437 168.28 308.306 169.773 308.306ZM177.434 318.557H180.84V311.385C180.84 309.764 181.808 308.644 183.335 308.644C184.863 308.644 185.633 309.577 185.633 311.21V318.557H189.038V310.499C189.038 307.571 187.475 305.822 184.7 305.822C182.776 305.822 181.458 306.732 180.793 308.283H180.723V306.055H177.434V318.557ZM192.105 303.175V306.055H190.344V308.621H192.105V315.187C192.105 317.624 193.248 318.603 196.187 318.603C196.875 318.603 197.458 318.545 197.808 318.464V315.956C197.598 315.991 197.283 316.015 196.98 316.015C195.977 316.015 195.51 315.56 195.51 314.603V308.621H197.819V306.055H195.51V303.175H192.105ZM201.434 304.364C202.426 304.364 203.207 303.571 203.207 302.615C203.207 301.647 202.426 300.866 201.434 300.866C200.443 300.866 199.662 301.647 199.662 302.615C199.662 303.571 200.443 304.364 201.434 304.364ZM199.743 318.557H203.149V306.055H199.743V318.557ZM205.213 309.729C205.213 311.606 206.437 312.819 208.851 313.332L210.985 313.775C212.21 314.055 212.641 314.429 212.641 315.093C212.641 315.91 211.848 316.434 210.566 316.434C209.213 316.434 208.432 315.851 208.222 314.755H204.898C205.12 317.216 207.114 318.825 210.566 318.825C213.784 318.825 216.035 317.204 216.035 314.743C216.035 312.913 214.962 311.886 212.35 311.338L210.216 310.883C208.956 310.615 208.49 310.184 208.49 309.542C208.49 308.714 209.271 308.178 210.449 308.178C211.708 308.178 212.467 308.866 212.571 309.88H215.708C215.639 307.431 213.656 305.787 210.449 305.787C207.265 305.787 205.213 307.35 205.213 309.729ZM218.624 303.175V306.055H216.863V308.621H218.624V315.187C218.624 317.624 219.767 318.603 222.706 318.603C223.394 318.603 223.977 318.545 224.327 318.464V315.956C224.117 315.991 223.802 316.015 223.499 316.015C222.496 316.015 222.029 315.56 222.029 314.603V308.621H224.338V306.055H222.029V303.175H218.624ZM234.647 318.755C236.21 318.755 237.761 317.974 238.461 316.644H238.531V318.557H241.819V309.962C241.819 307.443 239.732 305.787 236.525 305.787C233.213 305.787 231.149 307.455 231.02 309.88H234.134C234.297 308.959 235.102 308.329 236.373 308.329C237.656 308.329 238.472 309.006 238.472 310.172V311L235.324 311.187C232.21 311.373 230.461 312.691 230.461 314.965C230.461 317.216 232.268 318.755 234.647 318.755ZM235.767 316.294C234.612 316.294 233.843 315.711 233.843 314.778C233.843 313.892 234.566 313.321 235.837 313.227L238.472 313.064V313.974C238.472 315.327 237.248 316.294 235.767 316.294ZM251.324 305.857C249.516 305.857 248.128 306.767 247.452 308.236H247.382V306.055H244.023V322.638H247.429V316.458H247.499C248.163 317.869 249.563 318.755 251.382 318.755C254.507 318.755 256.443 316.329 256.443 312.306C256.443 308.271 254.496 305.857 251.324 305.857ZM250.181 316.015C248.513 316.015 247.417 314.568 247.417 312.306C247.417 310.067 248.513 308.586 250.181 308.586C251.883 308.586 252.956 310.044 252.956 312.306C252.956 314.58 251.883 316.015 250.181 316.015ZM265.504 305.857C263.697 305.857 262.309 306.767 261.633 308.236H261.563V306.055H258.204V322.638H261.609V316.458H261.679C262.344 317.869 263.743 318.755 265.563 318.755C268.688 318.755 270.624 316.329 270.624 312.306C270.624 308.271 268.676 305.857 265.504 305.857ZM264.362 316.015C262.694 316.015 261.598 314.568 261.598 312.306C261.598 310.067 262.694 308.586 264.362 308.586C266.064 308.586 267.137 310.044 267.137 312.306C267.137 314.58 266.064 316.015 264.362 316.015ZM278.123 318.825C281.901 318.825 284.315 316.411 284.315 312.294C284.315 308.236 281.866 305.787 278.123 305.787C274.379 305.787 271.93 308.248 271.93 312.294C271.93 316.399 274.344 318.825 278.123 318.825ZM278.123 316.224C276.443 316.224 275.382 314.813 275.382 312.306C275.382 309.822 276.467 308.388 278.123 308.388C279.778 308.388 280.851 309.822 280.851 312.306C280.851 314.813 279.79 316.224 278.123 316.224ZM287.825 304.364C288.816 304.364 289.598 303.571 289.598 302.615C289.598 301.647 288.816 300.866 287.825 300.866C286.834 300.866 286.053 301.647 286.053 302.615C286.053 303.571 286.834 304.364 287.825 304.364ZM286.134 318.557H289.539V306.055H286.134V318.557ZM291.813 318.557H295.219V311.385C295.219 309.764 296.187 308.644 297.714 308.644C299.242 308.644 300.012 309.577 300.012 311.21V318.557H303.417V310.499C303.417 307.571 301.854 305.822 299.079 305.822C297.155 305.822 295.837 306.732 295.172 308.283H295.102V306.055H291.813V318.557ZM306.484 303.175V306.055H304.723V308.621H306.484V315.187C306.484 317.624 307.627 318.603 310.566 318.603C311.254 318.603 311.837 318.545 312.187 318.464V315.956C311.977 315.991 311.662 316.015 311.359 316.015C310.356 316.015 309.889 315.56 309.889 314.603V308.621H312.198V306.055H309.889V303.175H306.484ZM314.064 318.557H317.469V311.012C317.469 309.612 318.344 308.633 319.639 308.633C320.898 308.633 321.656 309.426 321.656 310.767V318.557H324.933V310.965C324.933 309.577 325.784 308.633 327.079 308.633C328.397 308.633 329.12 309.426 329.12 310.872V318.557H332.525V310.02C332.525 307.501 330.881 305.822 328.432 305.822C326.601 305.822 325.108 306.813 324.548 308.388H324.478C324.058 306.755 322.799 305.822 320.991 305.822C319.289 305.822 317.948 306.813 317.423 308.318H317.353V306.055H314.064V318.557ZM342.962 314.732C342.647 315.688 341.691 316.306 340.443 316.306C338.706 316.306 337.574 315.082 337.574 313.297V313.087H346.192V312.05C346.192 308.248 343.895 305.787 340.257 305.787C336.56 305.787 334.227 308.376 334.227 312.364C334.227 316.364 336.537 318.825 340.385 318.825C343.475 318.825 345.714 317.181 346.088 314.732H342.962ZM340.292 308.306C341.808 308.306 342.846 309.402 342.916 311H337.609C337.726 309.437 338.799 308.306 340.292 308.306ZM347.953 318.557H351.359V311.385C351.359 309.764 352.327 308.644 353.854 308.644C355.382 308.644 356.152 309.577 356.152 311.21V318.557H359.557V310.499C359.557 307.571 357.994 305.822 355.219 305.822C353.295 305.822 351.977 306.732 351.312 308.283H351.242V306.055H347.953V318.557ZM362.624 303.175V306.055H360.863V308.621H362.624V315.187C362.624 317.624 363.767 318.603 366.706 318.603C367.394 318.603 367.977 318.545 368.327 318.464V315.956C368.117 315.991 367.802 316.015 367.499 316.015C366.496 316.015 366.029 315.56 366.029 314.603V308.621H368.338V306.055H366.029V303.175H362.624Z" fill="#F0F0F0"/>
<g clip-path="url(#clip6)">
<g clip-path="url(#clip7)">
<circle cx="29.8543" cy="349.294" r="5.97085" fill="#6FCF97"/>
<path d="M55.997 345.831H56.0845L58.997 355.845H60.4839L63.9212 343.224H62.2769L59.7492 353.528H59.6793L56.8367 343.224H55.2449L52.4023 353.528H52.3323L49.8046 343.224H48.1603L51.5976 355.845H53.0845L55.997 345.831ZM65.3819 355.845H66.9038V350.545C66.9038 348.971 67.8396 347.939 69.3527 347.939C70.7784 347.939 71.5043 348.805 71.5043 350.248V355.845H73.0262V349.968C73.0262 347.939 71.8192 346.592 69.825 346.592C68.4431 346.592 67.446 347.187 66.9387 348.201H66.9038V343.224H65.3819V355.845ZM80.9941 353.239C80.7405 354.096 79.8921 354.682 78.7376 354.682C77.102 354.682 76.0787 353.536 76.0787 351.796V351.708H82.6035V351.131C82.6035 348.376 81.0903 346.592 78.6326 346.592C76.1224 346.592 74.5131 348.507 74.5131 351.332C74.5131 354.192 76.0962 356.003 78.7026 356.003C80.688 356.003 82.2274 354.831 82.4898 353.239H80.9941ZM78.6064 347.913C80.0408 347.913 80.9941 348.997 81.0291 350.519H76.0874C76.1836 349.006 77.1807 347.913 78.6064 347.913ZM84.1428 355.845H85.6647V350.493C85.6647 348.953 86.6005 347.939 88.0349 347.939C89.4344 347.939 90.1253 348.743 90.1253 350.213V355.845H91.6472V349.942C91.6472 347.878 90.4927 346.592 88.4985 346.592C87.0903 346.592 86.1195 347.222 85.6122 348.201H85.5772V346.749H84.1428V355.845ZM103.297 353.239C103.044 354.096 102.195 354.682 101.041 354.682C99.4052 354.682 98.3819 353.536 98.3819 351.796V351.708H104.907V351.131C104.907 348.376 103.394 346.592 100.936 346.592C98.4256 346.592 96.8163 348.507 96.8163 351.332C96.8163 354.192 98.3994 356.003 101.006 356.003C102.991 356.003 104.531 354.831 104.793 353.239H103.297ZM100.91 347.913C102.344 347.913 103.297 348.997 103.332 350.519H98.3906C98.4868 349.006 99.4839 347.913 100.91 347.913ZM113.907 346.749H112.324L109.805 354.227H109.77L107.259 346.749H105.659L109.009 355.845H110.566L113.907 346.749ZM120.878 353.239C120.624 354.096 119.775 354.682 118.621 354.682C116.985 354.682 115.962 353.536 115.962 351.796V351.708H122.487V351.131C122.487 348.376 120.974 346.592 118.516 346.592C116.006 346.592 114.396 348.507 114.396 351.332C114.396 354.192 115.98 356.003 118.586 356.003C120.571 356.003 122.111 354.831 122.373 353.239H120.878ZM118.49 347.913C119.924 347.913 120.878 348.997 120.912 350.519H115.971C116.067 349.006 117.064 347.913 118.49 347.913ZM124.026 355.845H125.548V350.178C125.548 348.892 126.318 348.044 127.499 348.044C127.866 348.044 128.189 348.087 128.312 348.131V346.653C128.189 346.636 127.962 346.592 127.7 346.592C126.633 346.592 125.793 347.23 125.496 348.236H125.461V346.749H124.026V355.845Z" fill="white" fill-opacity="0.7"/>
</g>
<g clip-path="url(#clip8)">
<circle cx="159.72" cy="349.294" r="5.97085" fill="#6FCF97"/>
<path d="M180.414 355.845V345.971H180.493L187.402 355.845H188.933V343.224H187.376V353.134H187.297L180.388 343.224H178.857V355.845H180.414ZM191.985 345.131C192.519 345.131 192.939 344.703 192.939 344.178C192.939 343.644 192.519 343.224 191.985 343.224C191.461 343.224 191.032 343.644 191.032 344.178C191.032 344.703 191.461 345.131 191.985 345.131ZM191.225 355.845H192.746V346.749H191.225V355.845ZM202.359 349.732C202.166 348.096 200.811 346.592 198.536 346.592C196.026 346.592 194.356 348.429 194.356 351.297C194.356 354.227 196.035 356.003 198.554 356.003C200.618 356.003 202.14 354.726 202.376 352.915H200.881C200.618 354.009 199.805 354.665 198.563 354.665C196.988 354.665 195.904 353.414 195.904 351.297C195.904 349.233 196.971 347.93 198.545 347.93C199.883 347.93 200.653 348.743 200.872 349.732H202.359ZM209.811 353.239C209.557 354.096 208.708 354.682 207.554 354.682C205.918 354.682 204.895 353.536 204.895 351.796V351.708H211.42V351.131C211.42 348.376 209.907 346.592 207.449 346.592C204.939 346.592 203.329 348.507 203.329 351.332C203.329 354.192 204.913 356.003 207.519 356.003C209.504 356.003 211.044 354.831 211.306 353.239H209.811ZM207.423 347.913C208.857 347.913 209.811 348.997 209.846 350.519H204.904C205 349.006 205.997 347.913 207.423 347.913ZM217.122 344.554V346.749H215.767V348H217.122V353.484C217.122 355.233 217.77 355.915 219.44 355.915C219.799 355.915 220.219 355.889 220.402 355.845V354.568C220.297 354.586 219.948 354.612 219.773 354.612C218.994 354.612 218.644 354.236 218.644 353.405V348H220.411V346.749H218.644V344.554H217.122ZM225.545 356.003C228.055 356.003 229.752 354.192 229.752 351.297C229.752 348.394 228.055 346.592 225.545 346.592C223.026 346.592 221.329 348.394 221.329 351.297C221.329 354.192 223.026 356.003 225.545 356.003ZM225.545 354.665C223.936 354.665 222.878 353.44 222.878 351.297C222.878 349.154 223.936 347.93 225.545 347.93C227.155 347.93 228.204 349.154 228.204 351.297C228.204 353.44 227.155 354.665 225.545 354.665ZM235.044 355.845H236.566V350.545C236.566 348.971 237.501 347.939 239.015 347.939C240.44 347.939 241.166 348.805 241.166 350.248V355.845H242.688V349.968C242.688 347.939 241.481 346.592 239.487 346.592C238.105 346.592 237.108 347.187 236.601 348.201H236.566V343.224H235.044V355.845ZM247.28 356.003C248.504 356.003 249.659 355.321 250.201 354.28H250.236V355.845H251.679V349.557C251.679 347.746 250.332 346.592 248.198 346.592C246.047 346.592 244.7 347.799 244.595 349.373H246.064C246.257 348.481 246.991 347.93 248.163 347.93C249.423 347.93 250.157 348.595 250.157 349.706V350.466L247.551 350.615C245.452 350.738 244.254 351.717 244.254 353.274C244.254 354.91 245.469 356.003 247.28 356.003ZM247.621 354.708C246.528 354.708 245.802 354.14 245.802 353.274C245.802 352.417 246.501 351.875 247.726 351.796L250.157 351.647V352.391C250.157 353.703 249.055 354.708 247.621 354.708ZM261.073 346.749H259.49L256.971 354.227H256.936L254.426 346.749H252.825L256.175 355.845H257.732L261.073 346.749ZM268.044 353.239C267.79 354.096 266.942 354.682 265.787 354.682C264.152 354.682 263.128 353.536 263.128 351.796V351.708H269.653V351.131C269.653 348.376 268.14 346.592 265.682 346.592C263.172 346.592 261.563 348.507 261.563 351.332C261.563 354.192 263.146 356.003 265.752 356.003C267.738 356.003 269.277 354.831 269.539 353.239H268.044ZM265.656 347.913C267.09 347.913 268.044 348.997 268.079 350.519H263.137C263.233 349.006 264.23 347.913 265.656 347.913Z" fill="white" fill-opacity="0.7"/>
</g>
</g>
<path d="M458.076 328.131H459.977C463.09 328.131 464.968 329.531 464.956 331.91C464.956 334.207 462.974 335.886 460.257 335.886C457.621 335.886 455.568 334.324 455.51 332.236H454.612C454.671 334.79 457.05 336.714 460.257 336.714C463.487 336.714 465.889 334.685 465.889 331.886C465.889 329.496 464.187 327.886 461.609 327.711V327.665C463.825 327.233 465.213 325.74 465.213 323.653C465.213 321.239 463.137 319.396 460.14 319.396C457.294 319.396 455.137 321.192 454.997 323.7H455.895C456.023 321.671 457.831 320.224 460.14 320.224C462.589 320.224 464.28 321.717 464.28 323.735C464.28 325.834 462.519 327.315 459.953 327.315H458.076V328.131ZM472.443 336.469H473.353V319.641H472.443L467.825 322.615V323.583L472.42 320.656H472.443V336.469Z" fill="white"/>
<rect x="0.746356" y="272.42" width="510.507" height="110.461" rx="11.1953" stroke="#393939" stroke-width="1.49271"/>
<defs>
<linearGradient id="paint0_linear" x1="512" y1="-3.48918e-05" x2="-8.66655e-07" y2="111.953" gradientUnits="userSpaceOnUse">
<stop stop-color="#323131"/>
<stop offset="1" stop-color="#2C2C2C"/>
</linearGradient>
<linearGradient id="paint1_linear" x1="512" y1="135.837" x2="-8.66655e-07" y2="247.79" gradientUnits="userSpaceOnUse">
<stop stop-color="#323131"/>
<stop offset="1" stop-color="#2C2C2C"/>
</linearGradient>
<linearGradient id="paint2_linear" x1="512" y1="271.673" x2="-8.66655e-07" y2="383.627" gradientUnits="userSpaceOnUse">
<stop stop-color="#323131"/>
<stop offset="1" stop-color="#2C2C2C"/>
</linearGradient>
<clipPath id="clip0">
<rect width="170.169" height="20.898" fill="white" transform="translate(23.8834 67.172)"/>
</clipPath>
<clipPath id="clip1">
<rect width="70.1574" height="20.898" fill="white" transform="translate(23.8834 67.172)"/>
</clipPath>
<clipPath id="clip2">
<rect width="76.1283" height="20.898" fill="white" transform="translate(117.924 67.172)"/>
</clipPath>
<clipPath id="clip3">
<rect width="235.848" height="20.898" fill="white" transform="translate(23.8834 203.009)"/>
</clipPath>
<clipPath id="clip4">
<rect width="94.0408" height="20.898" fill="white" transform="translate(23.8834 203.009)"/>
</clipPath>
<clipPath id="clip5">
<rect width="117.924" height="20.898" fill="white" transform="translate(141.808 203.009)"/>
</clipPath>
<clipPath id="clip6">
<rect width="247.79" height="20.898" fill="white" transform="translate(23.8834 338.845)"/>
</clipPath>
<clipPath id="clip7">
<rect width="105.983" height="20.898" fill="white" transform="translate(23.8834 338.845)"/>
</clipPath>
<clipPath id="clip8">
<rect width="117.924" height="20.898" fill="white" transform="translate(153.749 338.845)"/>
</clipPath>
</defs>
</svg>
